<?xml version="1.0" encoding="UTF-8"?>
<svg id="Layer_1" xmlns="http://www.w3.org/2000/svg" viewBox="0 0 521.03 397.4">
  <path d="M262.59,18.23c68.87-.04,137.75-.01,206.81-.01,33.2-.93,38.47,3.93,37.47,37.74-.76,103.52,1.85,206.72-.8,310.12-1.34,20.2-24.24,17.1-38.86,17.59-138.37.01-276.5-.02-414.87-.08-9.45-.13-23.67.59-30.89-5.19-7.58-6.6-6.57-21.04-6.82-30.82.15-100,.32-199.86.54-299.64-1.03-27.63,10.55-30.41,35.36-29.71,70.06-.1,140.59.13,210.74,0h1.32ZM260.29,365.56c69.46-.12,139.39.05,208.93-.07,22.45,1.28,19.55-8.74,19.81-26.99.02-91.56-.02-183.05-.09-274.62-.5-12.04,3.06-28.25-14.33-27.16-140.39-.75-280.77-.53-421.16-.77-9.94-.03-20.83-.14-20.37,13.13-.65,50.03-.06,100.44-.27,150.75,0,43.59-.02,87.17-.03,130.76.2,7.58-.19,11.89,0,20.11-.04,9.05,1.26,14.25,11.22,14.59,71.71.83,143.5.06,214.96.29h1.32Z"/>
  <path d="M260.62,322.55c-58.72,0-117.35.03-176.26-.01-27.71.67-32.23-2.64-31.4-31.2-.13-65.27-.13-129.91.02-195.18.43-9.23-1.3-23.5,6.61-29.23,6.97-4.09,19.03-3.33,27.34-3.53,115.83-.21,231.47-.27,347.24-.23,25.69-.46,36.47.63,35.23,30.14.4,67.09.46,133.38.38,200.36.84,25.94-3.93,29.55-29.68,28.84-59.49.12-118.73.04-178.05.04h-1.44ZM260.01,304.36c58.22.17,116.94.14,175.3,0,18.76,1.03,16.16-11.45,16.4-25.77.02-56.87-.02-113.57-.11-170.4-.29-10.4,2.52-27.3-12.6-26.53-118.58-.53-237.18-.31-355.77.08-16.26-.92-13.37,14.75-13.65,26.15,0,56.83.09,113.52.26,170.4.33,15.85-2.23,27.04,18.21,25.93,56.78.23,113.93-.09,170.64.13h1.32Z"/>
  <path d="M254.63,252.79c-29.61.24-59.44.5-89.3-.01-8.81-.15-19.01-1.05-25.99-6.76-15.55-12.33-11.93-39.5,7.35-46.26,13.6-5.67,28.67.57,40.76-6.44,7.11-3.82,11.98-10.99,19.36-14.36,10.66-5.27,25.56-1.25,35.32-8.1,5.63-3.54,9.5-9.4,13.64-14.58,11.19-14.86,28.35-21.43,45.54-20.44,23.77,1.2,47.26,16.46,54.67,40.93,1.47,4.2,2.62,8.77,5.33,12.17,4.63,5.81,12.9,7.25,18.8,11.45,11.07,7.12,11.68,21.93,10.7,34.82-.12,8.73-6.71,14.77-15.32,15.38-39.15,5.71-79.88.23-119.48,2.15l-1.37.03ZM259.25,235c33.29-.05,67.16.7,100.5-.47,5.07-.46,11.05-1.57,13.46-6.3,2.99-5.73-.76-13.37-6.85-15.46-5.67-2.18-12.59-2.64-16.96-7.36-7.34-8.17-6.65-22.51-13.44-32.31-13.18-23.47-48.97-26.23-66.66-6.44-4.47,4.85-7.98,11.25-12.65,16.06-14.28,15.36-35.35,2.72-49.13,17.37-14.81,21.19-36,7.93-55.11,15.73-2.73,1.46-4.93,3.94-5.56,6.93-1.72,8.7,8.03,12.18,15.21,12.02,30.86.45,64.24.03,95.81.24h1.38Z"/>
</svg>