<?xml version="1.0" encoding="UTF-8"?>
<svg id="Layer_1" xmlns="http://www.w3.org/2000/svg" viewBox="0 0 579.22 528.98">
  <path d="M291.02,23.5c80.93,0,161.85.01,242.78,0,23.68,0,27.6,3.59,27.6,27.35.04,143.6,0,287.2-.11,430.8-.02,21.48-4.32,25.67-25.51,25.68-162.46.02-324.92.02-487.39,0-22.79,0-26.98-4.05-26.99-26.08,0-142.38.04-284.76.06-427.15,0-1.83-.04-3.65.01-5.48.53-20.18,4.74-24.66,24.93-24.69,81.53-.13,163.07-.05,244.61-.05v-.35ZM290.56,489.25v-.15c79.11,0,158.23.02,237.34-.02,14.95,0,15.2-.1,15.21-14.47.13-139.97.19-279.94.19-419.91,0-13.59-.25-13.86-14.14-13.9-35.9-.1-71.81.1-107.71.11-121.71.05-243.42.03-365.13.13-16.49.01-16.71.24-16.71,15.42,0,138.75.06,277.5.12,416.25,0,17.34-1.15,16.56,17.15,16.55,77.9-.05,155.79-.02,233.69-.02Z"/>
  <path d="M294.86,261.92c-65.1,0-130.2,0-195.31,0-15.02,0-20.92-2.78-19.56-9.95,2.22-11.67,12.13-8.03,19.27-8.04,130.81-.22,261.62-.18,392.44-.19,2.43,0,4.87.06,7.29.18,4.8.24,7.95,2.12,8.42,7.5.54,6.18-2.77,9.2-8.17,9.89-5.4.69-10.92.62-16.38.62-62.67.04-125.34.02-188,.02v-.04Z"/>
  <path d="M316.26,338.42c-58.33,0-116.67.01-175-.03-3.62,0-7.34.06-10.83-.71-4.64-1.03-7.17-4.27-6.98-9.27.2-5.28,3.34-7.5,8.2-7.73,3.64-.17,7.29-.1,10.93-.1,115.45.11,230.9.23,346.35.36,4.25,0,8.51-.01,12.74.32,5.9.46,5.85,5.32,6.22,9.44.36,4.08-1.59,7.39-5.75,7.96-4.78.65-9.69.47-14.54.47"/>
  <path d="M289.24,219.92c-62.04,0-124.08,0-186.13-.01-4.86,0-9.73-.11-14.59-.3-4.9-.19-8.14-2.59-8.37-7.69-.22-4.97,2.55-8.06,7.4-8.73,3.59-.5,7.27-.42,10.91-.42,128.95-.14,257.9-.28,386.85-.3,6.88,0,16.97-2.2,17.21,8.01.27,11.89-10.67,9.18-18.03,9.2-65.08.17-130.17.1-195.25.1v.15Z"/>
  <path d="M192.67,114.05c-4.25,0-8.5-.07-12.75-.22-4.94-.17-8.23-2.91-8.66-7.64-.54-6.1,3.63-8.55,9.08-8.96,4.23-.32,8.5-.3,12.75-.3,85.68-.1,171.36-.2,257.03-.24,6.89,0,16.49-2.46,16.36,8.39-.12,10.65-9.86,8.63-16.78,8.65-43.75.14-87.5.07-131.25.07"/>
  <path d="M274.12,153.28c27.33,0,54.67,0,82,.01,4.25,0,8.51-.06,12.74.27,5.3.42,9.77,2.76,9.95,8.59.18,5.83-4,8.53-9.41,8.99-4.23.36-8.49.3-12.74.3-56.49.06-112.98.17-169.47.06-8.03-.02-19.77,2.59-19.4-9.91.05-1.78.39-3.62,1.4-5.12.77-1.15,1.88-1.99,3.15-2.51,1.36-.56,2.83-.8,4.29-.91,1.6-.12,3.2-.07,4.8,0s3.13.17,4.7.18c.18,0,.35,0,.53,0"/>
  <path d="M409.92,383.78c-27.35,0-54.7.02-82.05-.03-4.24,0-8.51-.1-12.7-.61-3.3-.4-5.38-2.75-5.81-6.06-.5-3.88.55-7.3,4.48-8.99,5.2-2.23,10.74-1.64,16.19-1.66,52.88-.21,105.75-.5,158.63-.48,7.29,0,18.37-3.17,18.85,8.33.58,13.92-11.76,9.12-19.18,9.26-26.13.49-52.27.19-78.4.19v.05Z"/>
  <path d="M436.55,283.67c19.44,0,38.89-.09,58.33.05,5.91.04,13.29-.95,13.66,7.92.4,9.75-7.5,9.95-14.09,9.94-24.91-.03-49.82-.56-74.73-.81-15.19-.15-30.38-.09-45.57-.16-5.64-.03-11.95-.39-12.21-7.63-.3-8.12,6.01-9.3,12.63-9.28,20.66.06,41.32.02,61.98.02v-.06Z"/>
</svg>