<?xml version="1.0" encoding="UTF-8"?>
<svg id="Layer_1" xmlns="http://www.w3.org/2000/svg" viewBox="0 0 622.14 665.03">
  <path d="M311.36,630.34c-78.51,0-157.01,0-235.52,0-7.91,0-15.83.15-23.73-.04-7.08-.17-17.07,1.51-17.33-8.3-.24-9.43,9.15-9.43,16.69-9.34,9.74.12,19.47.16,29.21.06,14.7-.14,14.84-.2,14.84-14.81.04-67.55.42-135.11-.25-202.65-.24-24.22,5.11-28.07,26.77-27.54,30.41.74,60.85.23,91.28.15,15.51-.04,15.66-.15,15.63-16.19-.03-21.91-.39-43.81-.45-65.72-.04-16.95,3.36-20.52,19.8-20.68,12.17-.12,24.36-.25,36.51.34,8.07.39,10.56-2.83,10.49-10.56-.25-27.99.03-55.99-.05-83.98-.05-19.83,2.09-22.19,21.66-22.27,11.56-.05,23.16-.47,34.68.24,8.98.55,11.35-2.83,11.21-11.46-.48-29.81-.21-59.64-.22-89.46,0-4.87-.37-9.78.18-14.59,1.3-11.53,5.81-15.9,17.79-16.18,17.64-.41,35.3-.49,52.94-.06,12.96.32,16.78,4.55,17.28,18.08.38,10.33.05,20.69.05,31.03.04,60.25.05,120.5.14,180.75.03,19.24-2.18,18.39,19.02,18.38,9.13,0,18.27.27,27.38-.17,22-1.05,26.55,2.65,26.39,25.57-.5,73.03-.23,146.06-.22,219.09,0,29.82.48,59.65-.04,89.46-.18,10.1,2.54,14.12,13.16,13.42,13.33-.88,26.77-.1,40.15-.36,6.62-.13,11.1,2.73,10.98,9.14-.1,5.26-4.38,8.53-9.9,8.92-3.63.25-7.3.03-10.95.03-85.2,0-170.4,0-255.6,0,0-.1,0-.2,0-.3ZM380.8,322.43h.18c0,45.05-.02,90.09,0,135.14.03,47.48.31,94.96.01,142.44-.06,9.14,2.14,13.56,12.11,12.6,7.23-.7,14.6-.05,21.9-.04q18.09.02,18.24-17.24c.02-1.83-.03-3.65-.03-5.48-.19-175.92-.38-351.85-.55-527.77,0-6.09-.08-12.19.3-18.25.38-6.18-1.99-8.8-8.33-8.57-9.12.32-18.26.02-27.39.14-19.68.26-16.4-.52-16.42,16.76-.07,90.09-.03,180.18-.03,270.28ZM362.55,389.54h-.04c0-63.27.09-126.55-.09-189.82-.03-10.22,4.45-23.32-1.82-29.95-7.07-7.48-20.63-2.59-31.32-2.75-17.23-.26-16.61-1.96-16.57,16.82.33,130.81.62,261.61.93,392.42.02,7.91.35,15.83.03,23.72-.36,8.78,1.94,13.84,12.24,12.63,7.2-.84,14.58-.03,21.88-.11,14.57-.16,14.72-.21,14.73-14.89.06-69.36.03-138.72.03-208.08ZM451.06,612.6c14.84,0,27.53.1,40.21-.03,13.82-.14,14.05-.23,14.07-13.69.12-100.45.18-200.91.15-301.36,0-14.06-.27-14.11-13.47-14.38-8.52-.17-17.05-.26-25.57-.2-15.45.11-15.54.17-15.53,16.32.02,90.71.09,181.43.14,272.14,0,13.29,0,26.58,0,41.21ZM295.49,448.37c-.08,0-.17,0-.25,0,0-44.36-.14-88.71.05-133.07.13-32.54.32-32.5-32.22-32.51-18.7,0-16.91-.23-16.9,16.63.1,91.75.09,183.51.14,275.26,0,9.11.48,18.24.14,27.34-.28,7.54,1.95,11.34,10.27,10.66,7.24-.6,14.57-.1,21.86-.15,16.9-.12,16.92,2.84,16.91-16.49-.03-49.22,0-98.44,0-147.65ZM162.4,499.56h-.26c0-26.76.31-53.53-.15-80.28-.18-10.69,5.46-24.38-2.05-31.3-7.28-6.71-20.88-2.28-31.69-2.28-14.37,0-14.49.33-14.49,15.15,0,59,0,117.99.21,176.99.04,10.84-4.43,24.7,2.09,31.77,7.44,8.07,21.8,2.46,33.11,2.83,13.03.43,13.16-.13,13.2-14.35.07-32.84.02-65.69.02-98.53ZM183.48,612.58c9.31,0,18.99.02,28.67,0,16.16-.03,16.28,2.87,16.29-17.13,0-58.96.06-117.93-.14-176.89-.03-10.22,4.77-23.38-1.38-29.94-7-7.47-20.66-2.63-31.41-2.88-15.76-.37-15.26-1.27-15.21,16.38.19,62.61.23,125.22.44,187.83.02,7.21-.77,14.59,2.74,22.63Z"/>
</svg>