<?xml version="1.0" encoding="UTF-8"?>
<svg id="Layer_1" xmlns="http://www.w3.org/2000/svg" viewBox="0 0 995.63 283.69">
  <path d="M977.31,256.72c-.38-5.26-3.32-7.63-8.39-7.72-4.31-.08-8.62-.2-12.93-.2-152.82-.01-305.64,0-458.46,0v.16c-150.36,0-300.71,0-451.07.02-6.77,0-13.56.11-20.31.55-5.1.33-7.47,3.69-7.84,8.61-.42,5.65,3.63,7.66,7.89,8.52,4.16.84,8.56.62,12.85.62,20.95.02,41.9-.06,62.85-.06,284.7.06,569.39.14,854.09.16,4.89,0,9.87-.14,14.63-1.11,4.73-.96,7.06-4.49,6.69-9.55Z"/>
  <path d="M84.78,224.26c.17.18.35.34.54.49.38.31,3.01,2.64,4.56,3.43,1.74.89,3.55,1.69,5.41,2.27.32.1.64.16.96.21,1.8.29,4.64.92,6.84.72,2.01-.19,4.02-.45,6-.81.3-.05.6-.12.9-.21,2.07-.6,4.16-1.39,5.99-2.56,3.09-1.97,6.28-4.75,7.95-8.09,1.89-3.77,2.98-6.93,2.95-11.23-.02-1.98-.38-3.97-.77-5.91-.21-1.04-.9-2.32-1.23-3.12-.3-.71-.67-1.75-1.14-2.59.71-1.26,1.43-2.51,2.44-3.69,18.05-21.02,36.19-41.98,53.4-63.68,7.17-9.04,11.71-7.54,18.27,0,14.56,16.72,29.91,32.76,44.31,49.61,6.94,8.12,11.99,8.02,19.04.18,14.82-16.49,30.93-31.83,45.27-48.71,7.76-9.13,12.92-8.03,20.61-.71,10.69,10.18,22.24,19.46,33.39,29.17,13.86,12.07,13.92,12.17,26.83-.04,15.21-14.39,30.46-28.75,45.3-43.53,5.35-5.33,9.49-6.06,15.34-.86,12.88,11.44,26.62,21.94,39.13,33.75,8.1,7.65,14.05,8.99,23.31,1.21,25.44-21.37,51.7-41.78,77.75-62.43,10.49-8.32,19.38-21.34,34.49-17.31,1.8.3,3.6.61,5.41.91,1.42.15,2.82.15,4.24,0,1.88-.34,3.75-.78,5.64-1.05,1.19-.32,2.38-.32,3.57,0,.54.23,1.07.45,1.61.68.09.05.14.15.23.21,4.69,1.35,8.58,5.24,12.73,9.06,29.45,27.1,59.04,54.07,89.03,80.58,2.91,2.57,4.68,5.24,5.93,8.21-.31,1.88-.39,3.77.03,5.65.12,2.59.89,5.01,2.31,7.24,1.22,2.27,2.9,4.09,5.02,5.47,1.12,1.02,2.39,1.79,3.74,2.41.05.03.1.07.16.09,1.66.78,3.35,1.66,5.14,2.14.08.02.17.04.25.06.04,0,.09.01.13.02.86.12,1.73.23,2.59.35.88.13,1.77.25,2.65.36.18.02.36.02.55,0,.87-.07,2.53-.34,2.68-.36.25-.03,1.82-.21,2.68-.36.08-.02.17-.03.25-.05,1.78-.48,3.46-1.3,5.1-2.14.08-.04.15-.08.23-.13.04-.02.07-.05.11-.08.02-.01.04-.03.05-.04,1.31-1.02,2.63-2.03,3.94-3.05.16-.13.29-.27.42-.42.51-.66,1.02-1.31,1.52-1.97.53-.67,1.05-1.35,1.56-2.02.03-.04.05-.07.08-.11.05-.07.1-.15.14-.23.04-.08.08-.16.12-.24.33-.78.65-1.55.98-2.33.34-.79.68-1.59,1.01-2.39.02-.05.04-.1.06-.16.06-.17.1-.35.13-.52.31-1.78.56-3.58.72-5.38,0-.1.01-.2.01-.3-.02-1.89-.41-3.86-.74-5.65-.04-.2-.09-.39-.16-.58-.07-.18-.14-.37-.21-.55,1.9-3.03,4.52-5.51,7.59-8.18,28.79-25.07,57.19-50.59,85.88-75.78,5.4-4.74,10.15-10.21,16.23-13.89.67.27,1.35.55,2.05.69,1.74.34,3.67.69,5.52.73.13,0,.25,0,.38-.02-.4.04,3.87-.33,5.55-.77.12-.03.25-.07.37-.12,1.67-.63,3.38-1.26,4.97-2.11.13-.07.24-.14.36-.22.02-.02.04-.03.06-.05.32-.25.65-.5.97-.75.03-.02.06-.03.09-.05,1.44-1,2.86-2.06,4.17-3.23.09-.08.17-.17.25-.26.01-.02.03-.04.04-.06,1.02-1.31,2.03-2.63,3.05-3.94.04-.06.08-.12.12-.18.97-1.63,1.8-3.43,2.2-5.29.38-1.78.6-3.61.73-5.43.01-.14,0-.28,0-.43,0-.03,0-.06-.01-.08-.23-1.73-.46-3.45-.7-5.18-.02-.08-.03-.17-.05-.25-.04-.14-.08-.27-.14-.41-.17-.42-1.3-3.81-2.31-5.26-1.01-1.45-2.07-2.9-3.27-4.22-.11-.12-.23-.23-.35-.33-1.36-1.12-2.72-2.25-4.19-3.23-.12-.08-.25-.15-.38-.22-1.6-.76-3.22-1.47-4.88-2.06-.15-.05-.31-.1-.47-.14-4.94-1.04-6.79-.94-11.73,0-.24.05-.47.12-.7.21-1.67.64-3.36,1.28-4.95,2.1-.13.07-.26.14-.38.23-.06.04-.11.08-.16.12-.66.51-1.31,1.02-1.97,1.52-.69.51-1.37,1.04-2.03,1.57-.1.09-.2.18-.29.27-1.3,1.38-2.55,2.87-3.47,4.52-.44.79-.9,2.08-1.12,2.61-.24.57-.83,1.74-1.08,2.62-.04.12-.06.25-.08.38-.12.86-.23,1.73-.35,2.59-.12.89-.24,1.78-.36,2.67,0,.08-.02.15-.02.23,0,.13,0,.26,0,.39.14,1.83.4,3.65.73,5.45.05.26.12.5.21.74.18.48.42.95.6,1.43-4.5,5.43-10.52,9.48-15.9,14.25-28.56,25.33-57.12,50.68-85.84,75.83-3.33,2.92-6.44,5.06-9.44,6.61-.16-.07-.31-.13-.47-.2-.09-.03-.17-.07-.26-.09-.2-.06-.4-.1-.61-.13-.86-.12-1.73-.23-2.59-.35-.88-.14-1.77-.26-2.66-.36-.06,0-.12-.01-.17-.01-.1,0-.21,0-.31,0-1.93.08-3.88.35-5.76.77-.1.02-.2.05-.3.08-.04.01-.09.03-.13.05-.8.32-1.6.66-2.39,1.01-.46.19-.93.39-1.39.59-4.13-1.53-8.37-4.27-13-8.48-26.87-24.46-53.8-48.85-80.71-73.26-8.19-7.43-16.73-14.28-13.97-27.73,1.45-7.07-3.22-13.02-8.5-17.54-7.55-6.47-16.4-8.68-25.81-4.93-10.27,4.09-17.82,10.67-18.35,22.95-.25,5.79,1.53,11.65-4.9,16.59-30.23,23.26-60.17,46.91-89.75,71-7.13,5.81-11.17,3.91-17.04-1.31-12.88-11.45-26.35-22.22-39.67-33.16-11.46-9.41-11.7-9.54-22.66.66-15.32,14.26-30.71,28.5-45.35,43.45-7.31,7.46-12.25,6.7-19.46-.1-12.08-11.39-25.04-21.86-37.89-32.4-10.66-8.75-11.08-8.65-21.02,1.49-14.22,14.52-28.22,29.26-42.41,43.81-10.6,10.88-10.7,10.84-20.47.41-13.48-14.38-26.88-28.83-40.36-43.21-13.02-13.9-13.83-14.17-26.82.52-19.17,21.68-37.89,43.75-56.6,65.83-3.38,3.99-6.67,7.78-10.75,10.66-1.09-.17-2.24-.31-3.6-.4-.28-.02-.55-.01-.83.01-.34.03-4.27.32-6,.88-.27.09-.53.24-.8.34-.07.02-.14.04-.21.06-.2.08-.63.25-1.12.45-.04,0-.07,0-.11.01-.12.03-.24.05-.35.09-1.81.61-3.72,1.22-5.32,2.29-3.76,2.53-5.28,4-7.78,7.78-2.11,3.2-2.91,7.28-3.07,11.04-.09,2.19.19,4.49.92,6.57,1.49,4.23,2.69,6.48,5.79,9.81ZM629.1,34.25c6.35.59,9.52,4.65,10.45,10.83-1.66,5.63-4.5,10.47-11.15,9.83-6.2-.6-10-5.05-9.96-11.16.04-6.37,3.93-10.13,10.66-9.5Z"/>
</svg>