<?xml version="1.0" encoding="UTF-8"?>
<svg id="Layer_1" xmlns="http://www.w3.org/2000/svg" viewBox="0 0 421.15 528.98">
  <path d="M401,314.1c-5.08-67.27-46.11-124.22-105.16-153.25-11.71-6.54-26.65-9.29-36.94-17.61-7.64-6.15-10.48-18.29-5.86-26.54,3.45-6.75,9.5-10.05,14.33-15.06,9.91-10.01,7.37-26.85,5.44-39.68-6.02-38.16-45.73-63.85-82.74-49.76-26.35,8.76-41.44,35-41.89,61.96-.66,7.95.43,20.35,6.95,25.88,25.95,19.46,20.08,43.6-11.12,53.7-67.05,26.01-115.26,93.76-118.16,165.34-10.1,119.02,114.75,227.06,241.38,188.62,83.15-22.92,139.31-109.69,133.86-192.24l-.08-1.37ZM164.25,79.1c-5.01-56.86,72.35-76.75,90.42-20.83,10.35,40.49-3.66,33.35-35.87,34.21-9,.13-17.64.17-27.52.11-11.89.26-26.48,1.27-26.92-12.09l-.11-1.41ZM234.08,128.38c1.6,15.81-12.78,11.82-23.82,12.41-17.95.56-25.53-6.63-20.72-26.08,1.3-6.48,7.16-6.72,13.09-6.6,5.73-.11,14.79,0,19.64.05,2.72.06,7.32.06,9.09.92,4.69,2.06,2.25,13.13,2.73,18.1l-.02,1.2ZM210.78,497.8c-128.38-1.4-212.98-146.63-144.38-256.74,38.39-68.65,125.97-98.87,199.62-74.21,180.36,61.54,145.85,324.13-53.6,330.95h-1.63Z"/>
  <path d="M62.04,327.49c-1.94-80.18,65.91-151.53,149.79-150.75,83.79.78,153.83,67.68,153.31,150.59-.55,87.22-72.55,151.37-152.66,151.01-85.71-.38-151.93-73.77-150.43-150.85ZM348.01,327.2c1.21-60.55-47.24-131.51-135.36-134-72.24-2.04-134.08,60.08-134.39,132.48-.32,73.99,61.32,136.05,135.31,136.24,72.95.19,134.51-61.49,134.44-134.71Z"/>
  <path d="M220.2,267.28c0,5.47.3,10.96-.06,16.41-.71,10.72,1.39,18.81,11.11,26.3,15.07,11.62,15,30.29,2.38,43.04-11.78,11.9-30.5,12.24-42.61.78-12.3-11.64-13.15-32.56,1.09-43.39,9.59-7.29,10.15-15.1,10.11-24.75-.05-15.2-.02-30.4.06-45.59.03-6.53.98-12.61,9.7-12.06,7.56.48,8.02,6.29,8.12,11.9.16,9.12.04,18.24.04,27.36h.05ZM212.22,344.34c.32-.04.63-.09.93-.17,3.26-.84,6.82-2.84,8.71-5.7,1.71-2.58,2.04-5.89,1.5-8.94-.39-2.25-1.26-4.47-2.86-6.11-1.56-1.6-3.7-2.52-5.87-3.02-2.21-.51-4.55-.61-6.71.06-2.15.67-4.04,2.09-5.4,3.89-1.53,2.02-2.4,4.51-2.53,7.04-.17,3.42,1.06,6.91,3.44,9.38,2.1,2.17,5.63,3.91,8.78,3.56Z"/>
</svg>