<?xml version="1.0" encoding="UTF-8"?>
<svg id="Layer_1" xmlns="http://www.w3.org/2000/svg" viewBox="0 0 635.42 456.85">
  <path d="M614.77,131.15c-.07-40.11-23.81-64.73-64-66.34-15.8-.63-31.66.1-47.48-.23-7.76-.16-16.96,3.02-22.91-1.86-5.65-4.64-1.64-13.75-2.66-20.83-1.96-13.52-5.07-16.65-18.64-17.32-3.64-.18-7.3.26-10.95.26-85.24.01-170.48.49-255.7-.31-24.76-.23-33.48,1.07-30.6,28.43,1.09,10.39-3.62,11.96-12.52,11.74-21.91-.54-43.84-.67-65.75-.17-36.72.83-58.87,21.45-62.53,57.68-.73,7.25-.77,14.59-.77,21.88,0,73.06.02,146.12.2,219.18.02,7.27.39,14.68,1.83,21.77,4.68,22.93,18.97,37.46,41.1,44.23,8.77,2.68,17.93,2.92,27.12,2.91,76.11-.11,152.21-.06,228.32-.05,76.71.02,153.43-.47,230.14.2,43.54.38,66.71-30.22,66.18-65.58-1.17-78.52-.24-157.08-.38-235.62ZM194.61,42.3c41.29-.35,87.16.09,127.56-.15h1.41c37.3.05,78.95-.25,117.36.13,5.61.29,12,.58,16.66,3.63,11.73,9.46-3.16,19.78-14.29,18.57-84.61-.85-170.14,1.48-254.77-1.17-17.65-4.93-8.79-21.9,6.08-21.02ZM597.38,368.77c-.25,30.76-16.02,45.31-47.09,45.42-77.86.29-155.71.1-233.57.1v.11c-74.21,0-148.42,0-222.62,0-5.47,0-10.97.23-16.42-.18-19.35-1.45-32.34-12.71-37.43-31.6-1.76-6.55-2.45-13.1-2.46-19.82-.09-77.25-.16-154.5-.38-231.75-.02-7.41.83-14.58,3.66-21.36,6.61-15.83,18.17-25.48,35.58-27.16,4.83-.46,9.72-.26,14.59-.26,149.02.02,298.05.06,447.07.1,3.65,0,7.3.18,10.95.09,24.42-.59,48.31,13.75,48.29,47.27-.05,79.68.48,159.37-.16,239.04Z"/>
</svg>