<?xml version="1.0" encoding="UTF-8"?>
<svg id="Layer_1" xmlns="http://www.w3.org/2000/svg" viewBox="0 0 565.47 563.41">
  <path d="M543,232.65C511.22,44.26,311.88-37.76,161.84,42.61,67.33,93.23,23.16,176.42,19.98,282.33c.22,44.94,8.65,82.96,27.31,121.44,71.42,147.36,260.04,194.5,390.32,95.58,88.07-66.87,123.72-158.06,105.39-266.71ZM369.76,517.28c-141.36,51.15-286.19-26.04-323.39-167.03C16.46,236.86,62.48,120.69,159.87,62.67c80.86-48.17,193.23-43.49,270.88,15.74,66.48,50.71,98.12,119.3,99.38,198.86-.95,127.42-79.58,210.77-160.38,240Z"/>
  <path d="M220.63,60.93C57.69,110.17,6.69,319.5,122.56,442.16c55.21,58.45,123.53,79.11,201.21,65.47,107.14-18.82,186.66-120.92,183.38-222.8-.4-21-.9-37.5-4.46-53.91C472.96,93.81,337.57,25.59,220.63,60.93ZM450.99,173.44c-6.47,1.81-12.67,4.94-17.42,9.9-3.38,3.53-6.73,7.54-3.54,13.06,3.17,5.49,8.1,7.93,14.01,6.03,4.58-1.47,8.79-4.25,12.98-6.76,13.54-8.12,13.86-8.29,19.04,7.14,6.26,18.65,10.98,37.69,12.13,57.48.84,14.31,1,14.31-12.93,13.67-3.08-.14-6.15-.37-6.74-.41-2.37,0-4.58-.05-6.68-.1-1.67.09-3.33.17-5,.28-2.67.18-5.35.29-8.02.49-.82.06-1.65.14-2.47.23.01.02-1.58.27-1.85.34-.64.15-1.26.35-1.88.56,0,.05-.84.45-1.18.63-.17.16-.35.3-.49.48-.05.06-.19.24-.31.4-.11.2-.26.44-.3.51-.12.22-.3.6-.36.7-.13.35-.25.7-.35,1.05-.26.88-.42,1.78-.65,2.66-.02.09-.06.32-.09.48-.03.3-.06.6-.09.9-.05.77-.07,1.54-.05,2.3.01.53.04,1.06.09,1.59.01.1.02.19.03.24.18.86.41,1.68.65,2.52.15.53.8,1.61,1.32,2.12.17.17.46.38.59.48.24.15.49.29.74.42.12.02.76.25.76.25.55.14,1.09.3,1.65.43,1.85.41,3.69.48,5.67.57,2.91.13,5.8.31,8.68.63.28,0,.55,0,.83-.01,7.5-.21,15.01-.66,22.52-.47,3.99.1,6.28,3.04,6.72,6.72.17,1.4-.07,2.65-.58,3.75,0,.04,0,.07,0,.11-2.44,24.06-9.21,46.82-19.17,68.76-3.22,7.09-7.16,9.44-14.01,4.07-3.35-2.63-7.36-4.41-11.04-6.64-5.26-3.2-9.27-1.37-12.87,2.91-3.92,4.68-3.26,9,.89,13,2.2,2.12,4.54,4.15,7.02,5.93,13.66,9.78,13.63,9.72,3.81,22.36-9.87,12.71-21.64,23.46-33.48,34.28-7.23,6.61-11.16,5.02-15.49-2.4-2.78-4.76-6.14-9.18-9.39-13.65-3.18-4.38-7.52-7.09-12.67-4.28-5.74,3.14-6.05,8.28-3.83,14.31,2.15,5.82,4.18,11.85,8.29,16.31,6.55,7.1,2.85,9.96-3.67,13.23-23.38,11.71-48.36,17.47-74.09,20.81-6.15.8-7.29-1.88-7.23-7.02.1-8.62.18-17.26-.29-25.85-.37-6.71-3.2-12.34-11.03-12.03-7.58.3-7.84,6.56-8.15,12.15-.44,7.99-.89,15.99-.81,23.99.06,6.26-1.77,8.68-8.62,7.86-25.87-3.08-50.57-9.37-73.25-22.81-6.87-4.07-11.35-7.08-3.97-14.81,3.3-3.45,5-8.4,7.61-12.55,3.31-5.28,1.47-9.64-2.79-12.87-4.48-3.39-9.2-2.81-13.14,1.48-.83.9-1.5,1.95-2.32,2.87-5.08,5.78-8.02,16.36-15.91,15.92-7.32-.42-11.91-9.83-17.72-15.26-4.94-4.62-9.68-9.5-14.14-14.58-13.03-14.85-12.95-14.91,2.45-27.01,2.89-2.27,5.87-4.46,7.34-8.09,3.03-7.45-1.22-14.08-9.17-13.7-6.38.31-11.68,3.6-16.47,7.55-5.18,4.28-8.97,5.21-12.44-2.27-11.23-24.19-17.26-49.72-20.84-75.97-.69-5.08,1.98-6.27,6.36-6.33,8.61-.13,17.24-.25,25.82-.94,5.96-.48,11.06-3.18,10.69-10.2-.36-6.73-5.34-9.44-11.38-9.74-7.99-.4-16.02-.52-24.01-.19-6.94.28-8.42-3.06-7.47-9.02,3.68-23.02,7.7-45.8,16.76-67.65,4.42-10.64,8.5-9.78,15.94-4.45,4.42,3.17,8.51,7.16,14.37,7.86,5.35.63,9.42-.62,12.22-5.84,2.59-4.84.66-8.72-2.36-11.55-3.98-3.72-8.84-6.59-13.55-9.43-11.45-6.9-11.73-6.98-3.17-17.96,10.21-13.1,20.62-26.12,33.21-37.06,10.91-9.48,11.08-9.23,18.54,2.43,2.97,4.65,5.93,9.33,9.2,13.77,3.3,4.48,7.26,6.06,12.65,2.64,5.05-3.2,6.75-7.48,4.22-12.46-3.6-7.09-7.91-13.84-12.29-20.49-2.32-3.52-3.67-5.81,1.11-8.62,25.38-14.96,53.38-21.09,82.09-24.96,5.47-.74,5.78,2.99,5.83,6.87.11,9.24.2,18.47.28,27.71.06,7.12,4.05,9.68,10.68,9.53,6.51-.15,8.35-4.2,8.4-9.74.08-9.23.25-18.48,0-27.7-.16-5.7,2.21-7.84,7.7-7.1,26.25,3.54,51.82,9.31,75.81,21.18,6.3,3.12,6.47,6.24,2.92,11.31-4.57,6.52-9.04,13.11-13.33,19.82-3.23,5.05-1.61,9.81,2.77,12.92,4.34,3.07,9.77,3.36,13.34-1.21,5.27-6.75,10.09-13.91,14.45-21.28,3.17-5.37,5.95-6.89,11.18-2.43,18.36,15.64,35.03,32.68,48.15,53.13,4.1,6.39,2.44,8.1-3.99,9.9Z"/>
  <path d="M391.34,205.73c-5.87,3.26-12.02,6.06-17.69,9.63-21.02,13.19-59.48,35.08-83.75,50.12-8.28-4.35-18.89-4.22-25.88,2.69-13.78,13.17-5.42,33.77,10.25,38.29,4.17,13.63,11.08,33.56,12.49,37.6,1.8,5.19,3.78,11.16,11.27,8.5,6.19-2.2,7.84-7.22,6.4-13.43-.56-2.42-1.19-4.84-1.82-7.26-.44-1.17-5.93-17.63-9.49-28.36,7.16-5.07,11.06-14.4,8.96-23.01,26.64-15.58,66.11-39.05,88.73-53.55,3.59-2.3,7.3-4.68,10.2-7.73,3.36-3.54,2.94-8.28.24-11.93-2.36-3.18-6.13-3.65-9.91-1.55Z"/>
</svg>