<?xml version="1.0" encoding="UTF-8"?>
<svg id="Layer_1" xmlns="http://www.w3.org/2000/svg" viewBox="0 0 232.61 508.58">
  <path d="M206.02,177.83c-.25-.24-.38-.41-.46-.51.08-.11.23-.3.52-.59,4.21-4.19,7.44-9.09,9.62-14.56,4.99-12.52,3.18-23.8-5.37-33.51-1.19-1.35-2.52-2.54-3.82-3.68-.15-.13-.3-.27-.45-.4.15-.17.3-.34.46-.51,1.17-1.3,2.38-2.64,3.49-4.05,7.39-9.33,9.73-19.46,6.98-30.08-4-15.44-17.52-25.52-33.65-25.07-6.47.18-12.72,1.64-18.24,2.93-12.24,2.87-24.75,5.55-36.84,8.14-8.94,1.92-18.19,3.9-27.26,5.95-5.23,1.18-10.56,2.31-15.72,3.4-8.95,1.9-18.21,3.86-27.25,6.14-2.9.73-6,1.3-9.09.52-4.49-1.12-8.35-4.1-10.59-8.17-2.28-4.14-2.72-8.88-1.24-13.36,2.1-6.35,6.84-10.53,14.09-12.42,6.08-1.58,12.37-2.89,18.45-4.15l3.56-.74c4.98-1.04,10.02-2.2,14.89-3.32,10.5-2.41,21.35-4.89,32.18-6.39,11.42-1.58,21.14.71,29.74,7.01l.17.13c1.48,1.08,3.01,2.2,4.84,2.98,2.72,1.15,5.67.89,7.89-.69,2.21-1.57,3.4-4.25,3.21-7.18-.19-2.79-1.54-5.23-3.9-7.04-8.93-6.88-18.99-10.94-29.91-12.08-9.77-1.02-19.34.72-26.59,2.35-6.21,1.39-12.43,2.76-18.65,4.12-8.9,1.95-18.1,3.97-27.14,6.05-1.64.38-3.28.73-4.93,1.07-4.64.98-9.44,2-14.07,3.67-11.69,4.22-20.65,16.74-21.3,29.77-.58,11.7,3.43,21.1,11.92,27.95-2.53,2.65-4.51,5.21-6.06,7.81-6.5,10.92-7.06,21.75-1.68,32.2,1.95,3.78,4.71,7.21,8.71,10.8.15.13.3.27.44.4-.11.09-.22.18-.32.26-2.05,1.66-3.9,3.69-5.98,6.57-5.57,7.69-7.81,17.31-6.15,26.38,1.44,7.84,5.75,14.57,12.17,19.03-10.15,7.94-14.35,18.28-12.5,30.74,2.08,13.93,13.32,28.96,33.12,29.06.71,0,.73.05,1.02.56,1.37,2.45,2.79,4.98,4.45,7.33,4.39,6.23,7.03,11.86,8.29,17.7.45,2.08,1.22,3.89,2.29,5.39,1.97,2.76,5.67,3.89,9.22,2.81,3.28-.99,5.44-3.8,5.64-7.33.19-3.34-.7-6.41-1.7-9.22-2.4-6.81-5.75-13.45-10.23-20.3,2.61-.61,5.27-1.21,7.92-1.77,5.58-1.2,11.17-2.37,16.76-3.54l.27-.06c1.09,3.55,2.89,6.73,4.62,9.81.72,1.27,1.46,2.58,2.13,3.88,2.85,5.55,4.63,11.71,5.44,18.86.61,5.32.55,10.77.49,16.05-.02,2.13-.05,4.33-.03,6.51,0,.38,0,.89,0,1.26-.34.02-.8.02-1.21.02-7.4,0-14.81,0-22.79,0h-10c-2.59-.04-5.33-.02-8.24,0-5.73.03-11.66.06-17.69-.28-2.89-.16-5.75.11-8.51.37l-.83.08c-4.99.46-8.13,3.64-8.62,8.7-.14,1.39-.15,2.92-.06,4.81.35,6.74.43,13.48.47,19.75v1.58c.04,6.13.07,12.48.82,18.75,1.37,11.49,4.76,20.19,10.68,27.39,5.44,6.61,12.12,12,19.86,16.02,1.16.6,1.41,1.03,1.38,2.43-.09,5.92-.07,11.93-.06,17.75,0,1.9,0,3.8,0,5.7,0,3.76.18,7.21.54,10.57,1.22,11.27,7.64,18.71,17.6,20.4.65.11.76.23.76.23,0,.02.05.17-.01.55-.11.66-.08,1.29-.04,1.83v.19c.77,13.41,7.04,20.49,19.74,22.29,5.62.8,11.12,1.2,16.46,1.2,5.09,0,10.03-.36,14.8-1.09,10.57-1.61,16.26-6.72,18.46-16.58.51-2.3,1.02-5.04.91-7.85-.02-.55.07-.7.07-.7,0,0,.12-.11.59-.22,1.07-.23,2.05-.62,2.99-1l.33-.13c6.41-2.55,10.56-7.13,12.34-13.62.77-2.8,1.2-5.43,1.34-8.03.42-8.09.34-16.29.27-24.22-.02-2.47-.04-4.95-.05-7.42,0-1.36.25-1.65,1.24-2.07,5.16-2.17,10.01-5.46,14.41-9.79,8.35-8.21,13.18-16.89,14.74-26.53,1.32-8.14,2.23-16.33,2.7-24.36.5-8.5.93-18.39-.17-28.22-.55-4.92-1.9-6.52-6.55-7.78-2.87-.78-5.82-1.19-8.76-1.22-5.47-.05-11.68-.11-17.71.48-.47.05-1.09.11-1.53.12-.02-.41-.01-.99,0-1.45.04-3.7.14-8.08.66-12.46,1.34-11.39,5.65-20.39,13.17-27.53,2.86-2.72,6.19-4.92,9.08-6.77,1.6-1.03,3.6-2.3,4.86-4.48,1.51-2.61,1.54-5.71.09-8.29-1.44-2.54-4.06-4.09-7.02-4.15-2.16-.03-4.21.59-6.43,1.97-8.13,5.04-15.12,11.89-20.8,20.35-7.68,11.44-11.08,25.24-10.41,42.18.01.26,0,.45,0,.58-.11,0-.26.01-.47.01-5.58-.05-11.25-.05-16.74-.04-2.66,0-5.31,0-7.97,0-.4,0-.9,0-1.25-.02-.03-.37-.04-.91-.05-1.37-.01-.65,0-1.34.05-2.13.09-1.5.18-3,.26-4.49.28-5.08.57-10.32,1.37-15.41,1.51-9.63,3.75-17.1,7.05-23.53,6.12-11.93,15.78-19.7,28.72-23.1,4.61-1.21,9.39-2.08,14.02-2.92,3.49-.63,7.11-1.29,10.65-2.09,11.63-2.63,19.75-8.45,24.82-17.79,5.78-10.65,5.67-21.28-.31-31.6-2.44-4.21-5.02-7.63-7.88-10.45ZM188.54,329.35h.03c-.06,3.74-.02,7.54.03,11.21.09,7.79.19,15.85-.73,23.67-1.57,13.45-8.5,23.64-20.61,30.29-4.15,2.28-9.12,3.45-14.77,3.48-3.79.02-7.57.05-11.36.07-18.19.12-37.01.24-55.49-.16-13.6-.29-24.29-6.7-31.78-19.06-2.65-4.38-4.17-9.73-4.77-16.83-.63-7.48-.58-15.13-.52-22.54.02-3,.04-6.11.02-9.17,0-.28,0-.65,0-.95.33-.01.75-.01,1.12-.01,17.29,0,34.59,0,51.88,0h84.84c.19,0,.38,0,.57,0,.49.01.99.02,1.52-.02ZM125.61,450.86h-1.6c-10.71,0-21.41,0-32.12,0h-.03c-2.37,0-4.33-.18-6.15-1.06-2.75-1.33-4.91-5.75-4.36-8.77.08,0,.16,0,.24,0,1.98-.02,3.97-.02,5.95-.02h2.14s38.89,0,38.89,0c8.88,0,17.76,0,26.65,0,.28,0,.61,0,.89,0,0,.26,0,.58,0,.85-.01.69-.06,1.39-.15,2.08-.46,3.65-2.26,5.61-5.85,6.36-3.53.74-7.72,1.43-11.98.98-3.82-.41-7.67-.44-11.41-.44h-1.11ZM156.09,416.97c.05,1.82.03,3.68.01,5.48v.96c-.01.31-.01.66-.02.95-.26,0-.57,0-.83.01-3.5.01-7,.01-10.5,0h-25.86s-35.72,0-35.72,0c-.57,0-1.2,0-1.6-.03-.03-.41-.03-1.08-.03-1.74v-1.96c0-1.72-.01-3.45,0-5.17,0-.28,0-.59.02-.86.31,0,.71,0,1,0,1.63,0,3.26.02,4.89.04,1.71.02,3.45.04,5.13.04,8.05,0,16.1-.02,24.15-.04,12.3-.02,24.6-.04,36.9-.05h.86c.59,0,1.19,0,1.63,0,0,.12,0,.24-.01.36-.02.53-.03,1.18-.01,1.99ZM100.67,467.33c4.66-.03,9.32-.02,13.98-.02h4.51c1.63,0,3.25,0,4.88.01,4.26,0,8.66.02,12.99-.04.15,0,.27,0,.37,0,0,.03,0,.05-.01.08-.1.55-.13,1.08-.16,1.58-.04.65-.08,1.21-.24,1.72-1.12,3.63-3.02,5.21-6.54,5.47-1.85.14-3.78.12-5.64.11-.57,0-1.14,0-1.71,0h-.3c-4.75.01-9.51.01-14.26,0-5.47-.02-8-2.78-8.15-8.91.1,0,.2.01.3,0ZM113.99,252.95c3.63-.79,7.26-1.55,10.84-2.3l1.56-.33c-.14.14-.28.29-.42.43-.78.8-1.58,1.62-2.27,2.65-1.94,2.91-3.65,5.98-5.19,9.34-1.75-3.2-3.2-6.56-4.53-9.79ZM37.3,126.11c-.18-7.04,4.2-13.1,11.16-15.46,4.02-1.36,8.3-2.22,12.44-3.04,1.13-.23,2.26-.45,3.38-.69,16.64-3.48,31.33-6.59,44.91-9.52,12.11-2.61,24.22-5.25,36.33-7.89,6.42-1.4,12.84-2.8,19.27-4.2,6.79-1.47,12.4-2.61,17.68-3.59.93-.17,1.89-.26,2.85-.26,6.46,0,13.31,3.89,15.61,12.27,2.55,9.26-1.95,17.62-11.19,20.79-4.97,1.71-10.25,2.76-15.36,3.78-2.01.4-4.09.81-6.13,1.26-15.89,3.5-32.07,6.99-47.72,10.36l-14.51,3.13c-9.3,2.01-18.6,4.01-27.89,6.01l-20.45,4.4c-5.19,1.12-10.22-.08-14.16-3.37-4.07-3.39-6.39-8.59-6.22-13.91v-.05s0-.05,0-.05ZM46.3,163.88c4.03-1.87,8.27-2.72,12.76-3.62,1.12-.22,2.25-.45,3.37-.69,8.29-1.79,16.58-3.57,24.87-5.35l31.59-6.79c12.57-2.71,25.14-5.41,37.72-8.11,3.93-.84,7.85-1.72,11.78-2.59,4.31-.96,8.77-1.96,13.16-2.89,1.04-.22,2.11-.33,3.18-.33,3.88,0,7.83,1.43,11,4.06,3.99,3.31,6.13,7.99,6.01,13.15v.04c-.01,7.48-4.37,13.64-11.66,16.48-3.78,1.47-7.69,2.21-11.82,2.99-1.19.23-2.39.45-3.58.7l-2.34.48c-10.13,2.08-20.61,4.23-30.91,6.43-6.03,1.29-12.05,2.59-18.07,3.89-15.82,3.42-32.18,6.95-48.32,10.15l-4.22.83c-4.24.83-8.62,1.7-12.93,2.61-5.36,1.14-10.5.08-14.47-2.98-3.87-2.98-6.14-7.51-6.41-12.77-.33-6.65,3.41-12.95,9.3-15.69ZM50.25,214.1c4.61-1.4,9.46-2.28,14.15-3.13,2.36-.43,4.81-.87,7.21-1.38,9.22-1.94,18.44-3.86,27.66-5.78,8.82-1.83,17.65-3.67,26.47-5.53,7.63-1.61,15.26-3.24,22.88-4.87,9.03-1.93,18.05-3.86,27.09-5.75,1.92-.4,3.91-.62,5.66-.81.72-.08,1.4-.15,2.02-.23,9.96-.37,16.39,6.79,17.6,14.09,1.67,10.02-3.74,17.65-14.45,20.41-4.64,1.19-9.47,2.04-14.13,2.86-2.83.5-5.75,1.01-8.63,1.6-5.92,1.21-11.84,2.39-17.76,3.58-19.86,3.97-40.39,8.07-60.39,13.15-9.49,2.41-19.72,4.77-30.22,5.77-4.9.47-9.49-.88-12.93-3.81-3.37-2.87-5.33-6.99-5.66-11.93-.56-8.44,4.72-15.6,13.44-18.24Z"/>
</svg>