<?xml version="1.0" encoding="UTF-8"?>
<svg id="Layer_1" xmlns="http://www.w3.org/2000/svg" viewBox="0 0 412.22 425.67">
  <path d="M207.68,414.41c-107.25,3.42-199.85-96.44-194.88-201.87C20.79,1.9,290.48-57.57,382.65,131.28c60.77,124.72-32.28,285.03-173.47,283.12l-1.5.02ZM383.79,214.36c2.82-127.7-139.75-222.59-254.61-161.91C-.52,116.08-4.4,310.54,125.43,377.36c118.75,63.07,259.95-27.69,258.36-161.48v-1.53Z"/>
  <path d="M365.55,211.95c2.69,105.54-98.66,192.32-200.83,161.88C32.95,335.35,7.43,154.39,120.67,78.36c100.37-72.68,244.64,13.04,244.88,132.17v1.41ZM210.26,362.49c111.16-1.66,175.63-133.02,116.64-224.59-38.1-63.37-123.46-88.61-188.3-50.9C16.71,158.29,54.2,358.31,208.87,362.51l1.39-.02Z"/>
  <path d="M274.98,223.78c-.42-2.15-1.68-4.12-3.61-5.5-30.25-21.68-63.15-39.3-93.4-60.98-2.67-1.91-6.41-1.17-8.89.85-.52.39-.91.9-1.3,1.43-.14.19-.36.32-.47.52-.04.07-.03.14-.07.21-.28.51-.43,1.11-.59,1.72-.14.52-.29,1.02-.31,1.54,0,.17-.1.29-.1.47v108.82c0,.23.11.38.12.6.03.18.07.35.11.53.44,3.16,2.43,5.19,4.98,5.97,1.6.67,3.44.67,5.37-.03.03-.01.07-.02.1-.03.35-.13.68-.12,1.04-.31,30.88-16.47,61.95-32.51,93.4-47.84.31-.15.45-.38.72-.56.03-.03.07-.05.1-.08,2.81-1.84,3.54-4.65,2.79-7.32ZM185.02,180.82c20.42,13.6,41.49,26.21,61.94,39.76,2.28,1.51,2.05,4.94-.4,6.16-19.9,9.9-39.68,20.05-59.34,30.4-2.45,1.29-5.38-.47-5.38-3.25v-71.38c0-1.64,1.82-2.61,3.18-1.7Z"/>
</svg>