<?xml version="1.0" encoding="UTF-8"?>
<svg id="Layer_1" xmlns="http://www.w3.org/2000/svg" viewBox="0 0 461.3 531">
  <path d="M163.69,510.43h-72.96c-.15-.37-.47-.22-.72-.23-2.35-.1-4.7,0-7.05-.17-2.85-.19-5.71-.29-8.57-.51-2.74-.21-5.36-.86-7.93-1.75-3.56-1.24-6.83-3.06-9.68-5.53-3.03-2.62-5.39-5.8-7.06-9.46-1.52-3.31-2.51-6.79-3.19-10.38-.63-3.36-1.04-6.76-1.11-10.14-.11-5.3-.17-10.61.1-15.92.21-3.99.12-7.99.1-11.99,0-1.38-.2-2.78.13-4.16.12-.51-.14-.74-.65-.75-.88-.02-1.74.15-2.61.17-3.67.07-7.33-.05-11,.24-1.87.15-3.76,0-5.63.03-2.38.04-4.31-.88-5.83-2.67-2.84-3.35-2.12-8.21,1.36-10.78,1.6-1.19,3.43-1.28,5.26-1.4,2.86-.2,5.72,0,8.59-.19,2.9-.19,5.83-.2,8.74-.08.47.02.95-.12,1.4-.15.71-.05.73-.39.73-.92.04-3.4.11-6.79.15-10.19.03-3.28.05-6.56.05-9.83,0-10.2,0-20.39,0-30.59,0-.28-.02-.56,0-.84.03-.42-.16-.57-.57-.55-.32.02-.64,0-.96,0-7.44,0-14.87,0-22.31,0-3.6,0-6.46-2.23-7.36-5.7-.05-.19-.02-.41-.24-.5v-2.4c.18-.13.19-.33.24-.53.85-3.69,4.26-5.85,7.45-5.73,2.48.09,4.96.02,7.44.02,5.04,0,10.08,0,15.12,0,1.25,0,1.16.1,1.15-1.18-.02-1.44-.07-2.88-.09-4.31-.04-3.68-.02-7.36-.05-11.03-.1-10.67-.13-21.35-.19-32.02,0-1.32-.07-2.64-.05-3.95.01-.63-.19-.82-.82-.81-2,.03-4,.01-6,.01-5.44,0-10.88.02-16.32,0-3.96-.02-6.62-2.11-7.67-5.93-.03-.1-.13-.18-.2-.27,0-.8,0-1.6,0-2.4.26-.2.19-.51.27-.77.79-2.65,2.49-4.4,5.14-5.23.93-.29,1.89-.29,2.85-.29,7.2,0,14.39,0,21.59,0,1.04,0,1.07-.01,1.05-1.05-.04-3.88-.12-7.75-.15-11.63-.05-7.11-.02-14.23-.17-21.34-.08-3.84-.05-7.67-.08-11.51-.01-1.96-.04-3.92-.02-5.88,0-.61-.17-.89-.81-.82-.28.03-.56,0-.84,0-6.8,0-13.59.03-20.39-.01-4.78-.03-8.2-4.52-7.05-9.14.86-3.44,3.7-5.66,7.37-5.67,6.6-.02,13.19,0,19.79,0,.28,0,.56-.03.84,0,.67.08.97-.18.88-.87-.03-.24,0-.48,0-.72-.05-6.67-.02-13.35-.16-20.02-.09-4.16-.03-8.31-.08-12.47-.07-6.03.03-12.07-.17-18.1-.04-1.14-.03-1.14-1.22-1.15-6.76,0-13.51,0-20.27,0-.32,0-.64,0-.96,0-3.57-.09-6.31-2.29-7.18-5.76-.05-.19-.05-.4-.23-.53,0-.8,0-1.6,0-2.4.07-.09.18-.17.21-.27,1.08-3.9,3.67-5.87,7.68-5.88,6.84,0,13.68,0,20.51,0q1.37,0,1.36-1.3c-.05-10.15-.1-20.31-.14-30.46-.03-6.44-.04-12.87-.07-19.31,0-.12-.02-.24,0-.36.1-.67-.26-.83-.84-.78-.28.03-.56,0-.84,0-6.44,0-12.88.02-19.31,0-4.88-.02-8.37-4.59-7.14-9.3.86-3.32,3.73-5.53,7.23-5.54,6.64-.01,13.28,0,19.91,0,1.04,0,1.04-.01,1.05-1.04.03-2.68.05-5.36.07-8.03.07-8.15.19-16.3.48-24.45.19-5.26.81-10.42,2.46-15.44,2.34-7.1,6.32-12.96,12.78-16.94,3.38-2.09,6.95-3.72,10.97-4.23,4.72-.61,9.47-.85,14.22-1.03,4.75-.19,9.5-.37,14.26-.36.27,0,.64.19.82-.23h65.04c.23.43.63.23.95.23,6.68.03,13.35.07,20.03.19,7.43.13,14.87.09,22.3.24,6.83.14,13.67.09,20.5.24,6.39.14,12.79.1,19.18.24,6.43.14,12.87.1,19.31.24,6.55.14,13.11.12,19.66.24,9.15.17,18.31.23,27.46.3,7,.06,13.99.04,20.99.19,3.48.07,6.96.05,10.44.06,9.28,0,18.56,0,27.83,0,4.52,0,9.03,0,13.55-.13,4.07-.11,8.15-.07,12.23-.25,2.87-.13,5.75-.22,8.62-.41,1.17-.08,2.31-.05,3.44.24,1.04.27,2.1.49,3.13.79,5.1,1.48,9.77,3.76,13.57,7.55,5.59,5.59,8.22,12.59,9.14,20.25.8,6.63.76,13.31.92,19.98.07,2.72.07,5.44.11,8.15,0,.24-.18.58.23.7v64.8c-.36.28-.18.67-.18,1-.03,4.4-.03,8.8-.06,13.2-.03,4.88-.07,9.76-.1,14.63-.04,5.16-.11,10.31-.13,15.47-.03,6.92-.09,13.83-.18,20.75-.12,8.63-.1,17.27-.24,25.9-.13,8.15-.11,16.31-.24,24.46-.16,10.15-.22,20.31-.3,30.46-.04,6.12-.1,12.23-.18,18.35-.12,8.79-.1,17.59-.24,26.38-.12,7.16-.11,14.31-.17,21.47-.04,5.4-.1,10.79-.13,16.19-.04,7.56-.06,15.11-.11,22.67-.02,3.56-.05,7.11-.06,10.67-.01,13.83-.1,27.67.05,41.51.09,8.99.1,17.99.32,26.98.1,4.19.21,8.39.46,12.57.05.84.11,1.67-.04,2.51-.36,2.01-.85,3.99-1.6,5.88-3.99,10.08-11.09,16.69-21.7,19.35-.85.21-1.72.41-2.6.33-5.06-.45-10.13-.5-15.2-.61-8.43-.17-16.87-.22-25.3-.25-5.04-.02-10.07-.05-15.11.06-5.2.11-10.4.03-15.59.07-10.51.07-21.03.11-31.54.24-8.07.1-16.15.13-24.22.24-7.15.1-14.31.14-21.46.24-6.95.1-13.91.15-20.86.24-6.87.09-13.75.15-20.62.24-7.27.1-14.55.13-21.82.25-5.83.1-11.67.04-17.51.17-3.68.08-7.36.06-11.03.08-2.28.01-4.56.01-6.84.05-.31,0-.72-.22-.94.23ZM118.44,29.5c-3.9.02-9.1,0-14.29.13-4.71.11-9.43.08-14.15.24-5.07.17-10.15.23-15.19.82-4.57.54-8.27,2.65-10.86,6.47-2.25,3.32-3.16,7.14-3.69,11.04-.6,4.44-.56,8.93-.65,13.4-.17,7.79-.19,15.59-.26,23.39-.01,1.57-.19,1.38,1.42,1.39,9.56,0,19.12.02,28.68,0,4.37,0,8.62,4.08,7.03,9.66-.89,3.12-3.8,5.19-7.14,5.19-9.36,0-18.72,0-28.08,0-1.97,0-1.97,0-1.97,2.03,0,1.8.03,3.6.05,5.4.05,6.88-.04,13.76.07,20.63.12,7.52.09,15.03.12,22.55q0,1.6,1.57,1.6c9.08,0,18.16-.02,27.24.01,2.94,0,5.16,1.4,6.5,3.98,1.37,2.63,1.17,5.27-.53,7.71-1.53,2.19-3.72,3.15-6.39,3.14-8.64-.02-17.28,0-25.92,0-.48,0-.96,0-1.44,0-.9.02-.91.02-.9.91.02,2.76.06,5.52.06,8.28,0,10.16.1,20.31.24,30.46.05,3.84.03,7.68.04,11.52,0,.52.04,1.04.04,1.56,0,.4.17.59.57.59.32,0,.64,0,.96,0,7.8,0,15.6,0,23.4,0,1.48,0,2.96-.01,4.44,0,4.79.05,8.54,4.45,7.06,9.65-.88,3.08-3.88,5.21-7.13,5.19-9.24-.05-18.48-.02-27.72-.01-1.54,0-1.42-.2-1.41,1.41.07,7.92.17,15.83.23,23.75.05,5.52.05,11.04.09,16.55.02,3.16.06,6.32.09,9.47.01,1.02.02,1.02,1.09,1.03.24,0,.48,0,.72,0,8.28,0,16.56,0,24.84,0,.48,0,.96,0,1.44.04,3.21.19,5.87,2.34,6.72,5.42.85,3.1-.39,6.39-3.09,8.18-1.42.94-3,1.26-4.67,1.26-8.56,0-17.12,0-25.68,0q-1.23,0-1.22,1.17c.05,5.44.12,10.87.16,16.31.07,11.48.12,22.95.18,34.43,0,1.63-.14,1.4,1.41,1.4,9,0,18,0,27,0,3.69,0,6.89,2.87,7.23,6.39.39,4.1-2.01,7.5-5.82,8.27-.67.14-1.34.18-2.02.18-8.84,0-17.68,0-26.52,0-1.34,0-1.19-.11-1.2,1.24,0,.24,0,.48,0,.72,0,10.68,0,21.36,0,32.04,0,.4,0,.8,0,1.2-.07,5.52-.12,11.03-.22,16.55-.01.73.27.82.9.81,3.36-.09,6.71-.14,10.07-.22,5.71-.14,11.42-.26,17.14-.44,4.23-.13,8.04,3.36,7.73,8.04-.23,3.54-3.29,6.71-6.85,6.81-6.35.18-12.7.31-19.05.46-3.16.08-6.31.17-9.47.23-.54.01-.81.15-.79.74.01.68-.07,1.36-.08,2.03-.14,5.63-.02,11.27-.21,16.91-.18,5.27-.23,10.55.16,15.82.26,3.43.69,6.83,1.88,10.09,1.5,4.14,4.27,7.02,8.34,8.73,2.79,1.17,5.71,1.5,8.66,1.61,5.19.19,10.38.35,15.58.44,4.76.09,9.52.09,14.28.09,17.84,0,35.67,0,53.51-.22,8.76-.11,17.51-.14,26.27-.24,7.52-.09,15.03-.15,22.55-.24,7-.09,13.99-.15,20.99-.24,6.92-.09,13.83-.16,20.75-.24,6.96-.08,13.91-.16,20.87-.24,7.52-.08,15.03-.17,22.55-.24,8.76-.08,17.51-.17,26.27-.24,13.4-.11,26.79-.15,40.19-.18,7.08-.02,14.16.05,21.23.09,3.32.02,6.64,0,9.96.09,5.59.15,11.19.24,16.77.54.46.02.86-.09,1.28-.23,4.23-1.46,7.23-4.3,9.15-8.3.72-1.51,1.45-3.05,1.29-4.79-.22-2.43-.2-4.87-.3-7.3-.17-4.47-.25-8.95-.32-13.42-.09-6.32-.15-12.63-.16-18.95-.02-15.32-.14-30.63.06-45.95.05-4.24.04-8.48.05-12.72.02-9.24.05-18.47.18-27.71.13-9.75.08-19.51.24-29.27.14-8.67.09-17.35.24-26.03.14-8.19.09-16.39.24-24.59.14-8.03.1-16.07.24-24.1.14-8.19.1-16.39.24-24.59.14-8.51.09-17.03.24-25.55.13-7.08.11-14.15.16-21.23.04-5,.11-9.99.13-14.99.04-10.12.05-20.23.19-30.35.07-4.8.06-9.6.05-14.4-.02-15.68.06-31.35-.18-47.03-.11-7.27-.22-14.54-.54-21.81-.15-3.53-.73-6.95-1.84-10.33-1.96-5.96-8.42-9.99-14.53-9.65-.72.04-1.43.1-2.15.14-5.95.29-11.9.35-17.86.47-4.52.09-9.04.11-13.56.11-13.96,0-27.91.03-41.87-.17-8.67-.13-17.35-.07-26.03-.24-7.03-.14-14.07-.09-21.11-.24-6.59-.14-13.19-.1-19.79-.24-6.35-.14-12.71-.1-19.07-.24-6.43-.14-12.87-.1-19.31-.24-6.67-.14-13.35-.12-20.03-.24-9.55-.17-19.11-.23-28.66-.3-7.64-.06-15.27-.05-22.91-.19-4.44-.08-8.88-.05-13.32-.06-7.28,0-14.56,0-23.14,0Z"/>
  <path d="M123.61,182.84c0-26.72.04-53.43-.04-80.15-.01-3.97,3.15-7.73,7.72-7.7,10.36.06,20.72.07,31.08-.05,7.08-.08,14.16-.03,21.23-.07,9.48-.05,18.96-.08,28.43-.1,11.44-.03,22.88.04,34.32-.07,7.04-.07,14.07-.04,21.11-.06,13.28-.05,26.56-.07,39.83-.1,7.64-.02,15.28.04,22.92-.07,7.08-.1,14.16.02,21.23-.08,6.52-.09,13.04.03,19.55-.07,4.41-.07,8.02,3.63,7.65,8.23-.32,3.98-.37,7.98-.39,11.98-.04,8.44-.05,16.88,0,25.31.05,8.35.13,16.71.29,25.06.11,5.4.1,10.79.24,16.19.14,5.44.1,10.87.24,16.31.16,6.55.12,13.11.24,19.66.12,6.56.18,13.11.13,19.67-.04,5.51-.09,11.03-.47,16.53-.23,3.33-1.01,6.54-2.25,9.64-1.73,4.31-4.93,6.74-9.45,7.55-2.09.37-4.2.51-6.31.68-7.82.61-15.66.55-23.49.52-6.48-.02-12.96.03-19.44-.05-6.4-.08-12.8.02-19.2-.06-12.92-.15-25.83-.13-38.75-.14-6.32,0-12.64.03-18.96-.05-6.52-.08-13.04.05-19.55-.07-6.4-.12-12.79-.05-19.19-.07-12.88-.04-25.76-.02-38.63-.1-6.4-.04-12.8.05-19.2-.07-4.44-.08-8.88-.03-13.31-.07-4.38-.05-7.53-3.23-7.54-7.61,0-.08,0-.16,0-.24,0-26.76,0-53.51,0-80.27h-.03ZM138.45,182.97h.03c0,5.56,0,11.12,0,16.68v35.52c0,6.64,0,13.28,0,19.92,0,1.05,0,1.05,1.03,1.06,3.12.04,6.24.03,9.35.07,7.6.09,15.2.05,22.8.07,11.68.03,23.36.05,35.03.1,6.44.03,12.88-.03,19.31.07,7.84.11,15.68.05,23.52.07,11.44.03,22.88.05,34.31.1,6.48.03,12.96-.03,19.43.07,7.12.11,14.24.12,21.36.05,10.27-.11,20.55.39,30.82-.22,2.35-.14,4.71-.28,7.06-.39.65-.03.95-.25,1.11-.94.42-1.8.62-3.63.67-5.46.12-4.59.22-9.19.25-13.79.03-5.68-.01-11.35-.12-17.03-.12-6.87-.07-13.75-.24-20.63-.14-5.39-.1-10.79-.23-16.19-.16-6.83-.23-13.67-.32-20.5-.08-6.24-.12-12.47-.18-18.71-.03-2.96-.05-5.92-.07-8.88-.06-8-.06-16,.1-23.99.01-.71-.11-.88-.79-.87-2.24.05-4.48.04-6.72.06-7.04.05-14.08-.02-21.11.07-9.08.12-18.16.07-27.24.09-11.8.03-23.6.04-35.4.09-7.04.03-14.08-.02-21.11.07-9.6.12-19.2.07-28.8.09-11.28.03-22.56.04-33.84.08-7.08.03-14.16-.02-21.23.07-9.12.12-18.24.06-27.36.09-1.67,0-1.45-.21-1.45,1.47,0,23.88,0,47.76,0,71.64Z"/>
  <path d="M250.2,202.29c25.88,0,51.75.02,77.63-.02,3.71,0,6.96,2.7,7.55,6.22.73,4.34-2.58,8.49-7.01,8.65-.24,0-.48,0-.72,0-51.63,0-103.26,0-154.9,0-3.1,0-5.5-1.24-6.97-4.02-2.6-4.93.96-10.82,6.55-10.83,19.76-.01,39.51,0,59.27,0,6.2,0,12.4,0,18.6,0Z"/>
  <path d="M318.84,161.55c-34.96.23-69.93.53-104.9.77-10.54.13-21.03.12-31.53.23-3.41.02-6.76.11-10.14.07-2.27-.07-4.54-.34-6.32-1.75-2.07-1.61-2.75-4.72-1.57-7.08,1.58-3.38,5.9-3.88,9.32-3.85,45.2-.22,90.82-.72,136.04-.97,7.32.23,14.89-.82,22.16.32,4.6.92,6.47,7.34,2.62,10.28-4.42,3.1-10.41,1.55-15.49,1.97h-.19Z"/>
</svg>