<?xml version="1.0" encoding="UTF-8"?>
<svg id="Layer_1" xmlns="http://www.w3.org/2000/svg" viewBox="0 0 469.32 409.79">
  <path d="M444.48,50.91c-2.82-14.81-16.19-24.28-30.87-21.87-14.05,2.31-22.56,14.49-20.37,29.31.45,3,1.3,5.94,1.65,7.5,1,6.03-1.47,9.52-3.58,13.25-36.73,65.08-73.33,130.24-110.17,195.26-7.7,13.59-10.68,13.84-19.79.44-21.2-31.16-41.65-62.83-62.61-94.16-5.28-7.89-8.15-14.67-3.63-24.89,5.39-12.18-1.34-25.31-12.51-30.55-10.78-5.06-25.44-.92-32.39,9.26-5.22,7.64-6.05,16.37-2.47,24.36,3.01,6.71,1.89,11.22-2.27,16.52-27.04,34.45-53.91,69.04-80.83,103.59-3.02,3.87-6.47,6.57-10.98,8.26-1.48-.24-3.49-.57-5.15-.64-.28-.01-.56,0-.84,0-.13,0-.25.02-.38.03-.9.09-1.85.25-2.81.38-.7.08-1.4.18-1.98.27-.23.04-.47.06-.69.09-.1.02-.17.06-.26.08-1.84.36-3.44.92-6,2.28-1.59.84-2.95,2.14-4.31,3.28-.14.11-.25.23-.36.36-1.13,1.34-2.44,2.73-3.29,4.32-.04.08-.08.16-.11.24-.65,1.55-1.31,3.1-1.96,4.65-.03.08-.07.16-.09.25-.12.34-.19.69-.25,1.04-.31,1.86-.56,3.72-.76,5.59-.02.23-.04.47-.03.7.22,4.74.82,6.51,2.85,10.7.08.16.16.29.26.44.51.66,1.02,1.31,1.52,1.97.5.71,1.03,1.39,1.59,2.05.06.07.13.13.19.19.6.56,2.22,1.72,2.1,1.63.41.32,1.42,1.18,2.15,1.65.13.08.26.15.39.22,1.66.81,3.62,1.76,5.53,2.27.34.09.68.16,1.03.22,2.13.38,4.29.7,6.45.87,2.03.15,4.9-.48,6.36-.71,1.93-.31,4.37-1.62,5.69-2.23.14-.07.29-.13.43-.22.07-.04.13-.09.2-.13.03-.02.06-.05.1-.07,1.31-1.02,2.63-2.03,3.94-3.05.14-.11.27-.22.39-.36.58-.64,1.31-1.68,1.64-2.1.35-.46,1.18-1.42,1.66-2.16.05-.08.1-.16.14-.25.03-.05.05-.1.07-.16.65-1.55,1.31-3.1,1.96-4.65.03-.07.05-.15.07-.22.02-.08.04-.17.05-.25.23-1.73.46-3.45.7-5.18.02-.23.02-.45,0-.68-.01-.14-.27-4.02-.83-5.71-.08-.23-.21-.45-.29-.68-.07-.36-.12-.75-.19-1.08-.01-.07-.05-.13-.06-.19,1.08-3.09,2.5-5.91,4.62-8.62,28.48-36.42,56.75-73,85.29-109.37,9.58-12.21,11.03-12.21,19.48.3,22.46,33.25,44.56,66.74,66.95,100.04,3.95,5.88,4.93,11.2,3.09,18.57-3.14,12.61,2.72,23.36,13.3,29.29,9.23,5.17,20.88,4.03,28.97-2.85,8.83-7.5,12.27-19.63,5.91-31.42-4.29-7.94-2.51-13.17,1.16-19.83,34.01-61.74,67.91-123.55,103.65-184.32,4.78-8.13,8.89-14.17,20.36-14.74,14.95-.75,23.83-14.67,21.21-28.42ZM170.28,157.79c-5.19-.77-7.18-4.01-6.49-8.91.65-4.61,3.06-8.4,8.14-7.58,4.53.73,7.17,4.37,6.89,9.21-.31,5.18-3.68,7.18-8.53,7.28ZM274.26,318.04c-4.78-1.29-7.64-4.5-7.31-10.05.37-6.15,4.33-7.88,9.73-7.45,5.24.41,7.22,4.39,6.86,8.59-.4,4.77-2.5,9.31-9.28,8.91ZM417.26,63.34c-4.95,0-7.77-2.31-7.96-7.41-.19-5.36,1.61-9.68,7.52-10.01,5.65-.32,8.28,3.72,9.59,8.76-.71,5.34-3.34,8.67-9.15,8.66Z"/>
  <path d="M436.36,367.04c-4.76-.61-9.68-.36-14.52-.36-123.42-.08-246.83-.21-370.25-.08-8.75,0-22.55-3.95-22.35,9.2.19,11.9,13.21,7.94,21.35,7.97,61.71.24,123.41.13,185.12.13v.17c62.4,0,124.8,0,187.2,0,4.16,0,8.32.02,12.47-.11,5.91-.18,9.06-3.79,9.5-8.12.46-4.62-3.13-8.1-8.53-8.79Z"/>
</svg>