<?xml version="1.0" encoding="UTF-8"?>
<svg id="Layer_1" xmlns="http://www.w3.org/2000/svg" viewBox="0 0 391.43 447.36">
  <path d="M20.65,222.84c0-57.93-.05-115.86.02-173.79.03-21.76,5.41-27.25,27.2-27.27,97.37-.1,194.74-.11,292.12-.05,22.75.01,27.98,5.39,28.02,28.53.18,115.86.32,231.72.4,347.58.02,23.94-4.04,28.09-27.92,28.15-97.37.25-194.74.44-292.11.5-23.87.01-27.61-3.98-27.63-28-.04-58.55-.01-117.09-.01-175.64h-.08ZM192.9,217.13c48.03,0,96.06-.07,144.08.07,7.5.02,12.68-.22,12.58-10.5-.53-51.72-.49-103.44-.24-155.16.04-8.9-3.01-11.56-11.77-11.54-95.44.22-190.88.25-286.32-.15-10.24-.04-12.13,3.74-12.07,12.84.31,50.49.4,100.98-.18,151.47-.12,10.72,3.38,13.29,13.54,13.18,46.79-.48,93.59-.21,140.39-.21ZM196.6,235.41v.23c-47.37,0-94.74-.05-142.1.03-15.05.02-15.18.18-15.22,14.72-.08,35.06-.02,70.13-.02,105.19,0,14.15.21,28.3-.12,42.44-.16,6.82,1.92,10.55,9.3,10.1,3.68-.22,7.38,0,11.07,0,91.66-.02,183.32-.04,274.98-.08,14.92,0,15.23-.05,15.26-15.09.08-47.98-.03-95.97-.21-143.95-.05-13.39-.27-13.53-14.53-13.55-46.14-.07-92.28-.03-138.41-.03Z"/>
  <path d="M131.41,122.11c-2.99,16.78-14.26,33.28-27.64,48.57-3.63,4.15-7.94,2.56-11.04-1.14-12.74-15.21-23.02-31.91-24.37-52.16-1.28-19.31,12.28-33.21,30.83-33.43,19.03-.23,33.17,14.7,32.22,38.17ZM112.19,116.9c-.2-7.87-6.57-14.58-13.76-14.01-8.05.64-12.01,5.4-11.52,13.39.49,8,4.5,14.19,12.4,15.87,5.75,1.22,13.06-8.24,12.88-15.25Z"/>
  <path d="M304.88,97.37c3.68,0,7.38-.18,11.03.11,4.96.39,10.59.93,10.6,7.52,0,6.5-4.06,9.82-10.73,9.79-11.04-.06-22.08-.04-33.12,0-38.03.17-76.07.37-114.1.55-2.45.01-4.91,0-7.36-.08-5.72-.2-9.32-2.47-8.99-8.92.31-5.89,3.2-9.16,9.12-9.19,7.36-.04,14.72.31,22.07.33,19.02.05,38.03.02,57.05.02"/>
  <path d="M240.44,156.75c22.16,0,44.33,0,66.49,0,3.69,0,7.39-.03,11.07.17,4.77.26,8.59,2.24,8.7,7.54.12,5.76-2.99,9.16-8.95,9.46-3.69.18-7.38.35-11.07.36-44.94.13-89.89.23-134.83.33-3.08,0-6.16.08-9.23-.11-5.16-.32-9.85-1.25-10.07-8.02-.24-7.29,3.82-9.71,10.33-9.71,25.86.01,51.71,0,77.57,0v-.03Z"/>
  <path d="M67.89,313.4c.29-21.8,15.49-36.73,33.15-36.21,19.2.57,33.54,16.35,30.67,35.87-2.94,20-14.36,36.27-27.08,51.46-3.95,4.73-8.5,4.62-12.36-.21-12.84-16.07-21.66-33.98-24.38-50.91ZM112.22,312.63c.47-8.85-5.43-16.2-12.58-15.56-6.38.58-11.63,3.41-12.34,10.97-.75,7.91,7.05,21.09,12.37,19.81,7.97-1.92,11.25-8.48,12.55-15.22Z"/>
  <path d="M238.56,361.31c-22.16,0-44.33.02-66.49-.02-4.3,0-8.64.06-12.89-.46-4.92-.6-8.06-4.28-8.05-8.73.01-4.42,3.03-8.09,8.07-8.61,3.66-.38,7.37-.35,11.06-.35,46.17-.06,92.34-.22,138.52-.02,7.29.03,18.39-3.24,18.33,9.03-.05,12.02-10.91,9.05-18.37,9.12-23.39.23-46.79.09-70.18.09v-.05Z"/>
  <path d="M240.55,302.81c-22.73,0-45.45.02-68.18-.02-4.29,0-8.61-.05-12.87-.48-4.16-.41-6.47-3.02-6.89-7.23-.49-4.81,1.01-8.83,5.93-9.97,4.11-.96,8.5-.97,12.77-.97,45.45-.1,90.91-.11,136.36-.14,1.23,0,2.46-.07,3.68.01,7.25.45,16.3-.77,16.02,10.18-.3,11.84-10.23,8.24-16.8,8.35-23.34.37-46.68.14-70.02.14v.13Z"/>
</svg>