<?xml version="1.0" encoding="UTF-8"?>
<svg id="Layer_1" xmlns="http://www.w3.org/2000/svg" viewBox="0 0 895.53 598.43">
  <path d="M448.59,15.52c135.56,0,271.12,0,406.67,0,24.5,0,27.15,2.62,27.16,27.85.04,135.56.06,271.13.03,406.69,0,23.96-3.97,27.66-27.98,27.61-105.98-.21-211.96-.37-317.94-.53q-13.8-.02-14.16,14.23-.8,31.39,30.99,31.12c24.71-.21,46.32,19.38,47.5,43.37.37,7.59-2.65,13.3-11.18,14.1-3.67.34-7.38.31-11.08.32-88.11.06-176.23.15-264.34.11-18.58,0-21.81-4.9-16.06-22.6,2.5-7.69,6.23-14.68,10.83-21.24,6.77-9.67,15.48-15.45,27.94-14.83,9.84.49,19.74-.29,29.56.25,8.16.45,10.17-3.14,10.78-10.7,2.74-33.72,2.97-33.89-29.78-33.92-102.29-.09-204.57-.02-306.86,0-2.46,0-4.93.24-7.39.15-15.78-.54-18.15-2.84-18.16-18.43-.01-32.66.17-65.32.19-97.97.07-105.98.11-211.97.16-317.95,0-2.46-.03-4.93.07-7.39.74-17.76,2.95-20.17,20.81-20.19,78.87-.05,157.74.07,236.61.11,58.54.02,117.07,0,175.61,0v-.15ZM448.26,33.94v.12c-110.26,0-220.51-.02-330.77.01-24.64,0-49.28.37-73.91.12-7.72-.08-11.56,2.23-10.82,10.45.39,4.28.03,8.62.04,12.93.08,123.81.15,247.62.23,371.42,0,4.31-.03,8.62.03,12.93q.27,17.45,16.94,17.58c1.23,0,2.46,0,3.7,0,255.62-.03,511.25-.05,766.87-.07,9.86,0,19.75-.44,29.56.25,9.93.7,15.34-2.02,13.93-13.08-.54-4.24-.07-8.61-.06-12.92.03-125.66.16-251.31.01-376.97-.03-24.9,5.11-22.65-22.15-22.69-131.2-.18-262.4-.08-393.6-.08ZM447.13,562.44c0,.08,0,.15,0,.23,38.19,0,76.39.2,114.57-.24,5.19-.06,13.27,4.62,15.48-4.29,1.29-5.2-10.36-16.91-16.25-17.61-3.65-.43-7.38-.23-11.08-.22-11.09.03-22.19-.19-33.26.24-9.25.36-13.66-3-13.17-12.8.65-12.91.22-25.87.86-38.78.38-7.6-1.55-11.3-10.04-11.2-29.57.32-59.14.33-88.71-.07-8.65-.12-10.24,3.89-10.05,11.26.33,12.93-.21,25.88.07,38.81.17,7.83-3.1,11.17-10.89,11.07-14.17-.17-28.37.65-42.49-.15-8.56-.49-14.31,2.21-18.13,9.45-2.18,4.12-8.09,7.67-5.31,12.64,2.17,3.87,7.88,1.56,11.96,1.58,38.81.14,77.62.08,116.43.08Z"/>
  <path d="M450.32,49.81c122.56,0,245.12,0,367.68,0,4.93,0,9.87.26,14.78,0,9.1-.49,13.99,3.07,13.68,12.73-.18,5.53.33,11.08.33,16.62-.05,113.94-.13,227.87-.21,341.81,0,3.69-.28,7.39-.14,11.08.3,7.77-3.51,11.13-11.08,11.23-8.62.11-17.23.83-25.84.84-243.88.12-487.77.22-731.65.23-34.38,0-27.82-.29-27.95-27.88-.56-113.32-.32-226.64-.37-339.96,0-2.46.03-4.93.1-7.39.59-19.14.82-19.44,20.09-19.44,126.87-.01,253.74.02,380.61.03v.11ZM448.26,68.21c-91.2,0-182.39,0-273.59,0-31.43,0-62.85.24-94.27-.15-8.28-.1-13.13,1.45-11.89,10.95.39,3.02-.07,6.15-.07,9.23,0,104.14.01,208.27.04,312.41,0,5.54.42,11.1.22,16.63-.23,6.52,3.01,8.45,9.01,8.29,12.32-.32,24.64-.35,36.97-.36,231.68-.14,463.37-.26,695.05-.38,3.7,0,7.41-.17,11.09.07,4.59.3,6.79-1.71,6.87-6.21.07-4.31.15-8.62.16-12.94.15-75.17.27-150.35.46-225.52.08-32.66.3-65.31.44-97.97q.06-13.62-14.47-13.97c-3.7-.09-7.39-.06-11.09-.06-118.31,0-236.62,0-354.93-.02Z"/>
  <path d="M453.11,359.96c-105.94,0-211.88,0-317.82-.02-4.3,0-8.7.27-12.89-.47-5.19-.91-9.23-3.61-8.67-9.9.48-5.3,3.99-7.35,8.74-7.62,4.91-.28,9.85-.27,14.77-.27,46.81.02,93.62-.2,140.43.32,10.19.11,13.92-2.51,13.69-13.18-.61-27.7-.13-55.43-.07-83.15,0-4.31-.02-8.62.08-12.93.17-6.61,1.49-13.08,9.82-12.55,7.02.45,8.21,6.49,8.24,12.33.13,30.8.1,61.59.25,92.39.09,18.86-1.42,16.83,16.76,16.9,17.25.07,34.53-.61,51.73.27,10.94.56,13.17-3.91,13.08-13.7-.35-40.65-.08-81.3.02-121.95.01-4.91-.12-9.92.77-14.7.69-3.7,3.56-6.89,7.55-7.18,4.8-.35,8.43,2.7,9.32,7.2.94,4.76.61,9.8.61,14.72.03,40.65.29,81.31-.18,121.95-.11,9.91,2.13,14.18,13,13.64,17.2-.85,34.5-.7,51.72.04,10.13.44,13.56-2.51,13.44-13.1-.54-48.04-.25-96.08-.24-144.13,0-16.01.02-32.03.08-48.04.01-3.69-.15-7.44.44-11.05.86-5.3,3.64-9.53,9.7-8.83,4.6.53,7.8,3.59,8.04,8.61.24,4.92.25,9.85.26,14.77.07,62.21.07,124.42.19,186.62.03,14.68.19,14.8,15.15,14.84,33.26.09,66.52,0,99.78.05,15.65.02,14.48.24,14.31-13.65-.1-8.62,0-17.25.12-25.87.08-6.25,2.82-11.54,9.28-11.63,6.64-.09,9.09,5.3,9.14,11.53.08,9.85.41,19.72.1,29.56-.21,6.68,1.39,10.2,9.07,10.05,18.47-.37,36.96-.22,55.43.03,6.2.08,8.88-2.05,8.73-8.51-.24-10.46.17-20.94.27-31.41.06-6.07,1.57-11.69,8.76-11.56,6.86.12,9.1,5.81,9.35,11.64.42,9.84.69,19.73.07,29.55-.52,8.34,2.8,10.75,10.64,10.29,8.59-.5,17.24.11,25.86.02,5.71-.06,10,1.98,10.13,8.05.13,6.33-3.02,10.4-10.14,10.2-4.92-.14-9.85.04-14.78.04-104.71,0-209.42,0-314.12,0v-.25Z"/>
  <path d="M206.8,219c-9.28-6.52-14.31,2.11-20.55,7.8-17.69,16.13-35.48,32.15-53.27,48.16-2.73,2.46-5.49,5-8.62,6.85-4.25,2.51-7.95,1.4-11.29-2.47-3.21-3.71-1.94-6.95.46-9.84,3.12-3.76,6.64-7.24,10.27-10.52,14.12-12.75,28.08-25.71,42.65-37.94,10.92-9.17,19.77-17.89,20.52-34.21.73-15.89,13.97-24.44,27.94-22.34,13.47,2.02,24.52,15.43,23.56,28.61-1.08,14.84-15.15,26.86-31.67,25.9ZM212.34,200.51c5.21-1.77,9.01-4.66,7.85-10.66-.86-4.4-3.45-8.8-8.26-8.44-5.19.39-8.96,4.34-8.97,9.92-.02,5.84,4.05,8.38,9.38,9.18Z"/>
</svg>