<?xml version="1.0" encoding="UTF-8"?>
<svg id="Layer_1" xmlns="http://www.w3.org/2000/svg" viewBox="0 0 529.63 539.95">
  <defs>
    <style>
      .cls-1 {
        fill: none;
      }
    </style>
  </defs>
  <path class="cls-1" d="M61.93,185.95c67.04-.07,134.46.26,201.42-.13l1.32-.03c67.59-.54,135.67,0,203.34-.23,13.68-.14,21.61.33,21.16-16.93.14-36.23-.17-72.18.11-108.67.4-10.69-4.46-18.07-16.02-17.6-104.18-.04-208.43.04-312.64.19-33.62.08-67.24.01-100.85.2-4.95.18-12.28.21-15.25,3.37-3.37,2.92-3.2,10.58-3.36,14.9-.01,34.9.42,69.76.69,104.66-.73,19.05,1.69,20.5,20.08,20.28ZM334.53,146.28c-43.37.51-87.21-.01-130.66-.06-4.08-.15-9.07.18-11.64-3.3-7.15-16.07,16-13.21,25.62-13.25,16.65.07,33.99-.06,50.42.02h1.18c21.62.13,44.56-.19,66.01.19,2.14.27,4.66.52,6.26,2.11,5.69,6,.88,14.73-7.19,14.29ZM194.32,77.51c5.81-3.12,12.84-1.88,19.31-2.19,37.93-.04,76.99.04,114.96-.04h1.31c38.06-.06,77.2-.02,115.21-.01,5.51.17,11.67-.49,16.44,2.48,6.28,4.17,2.92,13.01-4.31,14.24-3.56.86-7.55.78-11.52.84-82.07-.85-165.31,1.53-247.39-1.15-7.5-1.19-10.71-10.1-4.02-14.17ZM97.33,103.72c-1.93-3.8-2.44-8.75-.84-12.77,2.21-5.54,7.52-9.92,13.29-11.14,5.93-1.26,12.51.82,16.49,5.43.48.55.91,1.14,1.3,1.75,2.89,4.51,3.47,10.52,1.19,15.38-1.51,3.23-4.15,5.86-7.23,7.65,0,0-.01,0-.02,0,5.88,8.63,10.43,18.94,15.18,27.95l.42.92c1.81,3.53,1.77,5.7-3.41,5.54-12.73-.5-27.45,1.75-39.88-.05-1.14-.17-2-1.08-2.02-2.16-.05-4.02,3.91-9.71,4.6-13.38,2.63-5.88,4.69-12,8.07-18.01-3.04-1.56-5.6-4.06-7.15-7.11Z"/>
  <path class="cls-1" d="M489.19,219.73c.11-10.21-.93-16.86-13.4-16.48-18.78-.33-35.87-.04-54.45-.14-121.78.03-243.78-.07-365.45.27-11.55-.46-15.38,8.59-14.79,18.82.31,35.09.2,69.75.12,105.5-.14,3.83.17,8.75,2.3,11.45l.7.78c137.73,7.88,279.31.4,418.23,3.11,7.45-.39,17.51,1.57,23.13-3.46,3.12-3.02,3.67-8.38,3.78-12.85-.13-35.87-.19-71.11-.17-107.01ZM131.55,305.54c-12.73-.5-27.45,1.75-39.88-.05-1.14-.17-2-1.08-2.02-2.16-.05-4.02,3.91-9.71,4.6-13.38,2.63-5.88,4.69-12,8.07-18.01-3.04-1.56-5.6-4.06-7.15-7.11-1.93-3.8-2.44-8.75-.84-12.77,2.21-5.54,7.52-9.92,13.29-11.14,5.93-1.26,12.51.82,16.49,5.43.48.55.91,1.14,1.3,1.75,2.89,4.51,3.46,10.52,1.19,15.38-1.51,3.23-4.15,5.86-7.23,7.65,0,0-.01,0-.02,0,5.88,8.63,10.43,18.94,15.18,27.95l.42.92c1.81,3.53,1.77,5.7-3.41,5.54ZM301.52,303.71c-2.14,2.2-5.59,2.33-9.09,2.44-15.18.1-30.96.13-46.07-.01l-1.08-.02c-15.73-.48-31.9.73-47.67-.54-5.9-.68-8.01-8.36-4.65-13.29,2.16-3.14,6.61-3.72,10.33-3.85,29.19-.11,58.16-.08,87.32.03,9.9-.93,16.96,6.43,10.9,15.24ZM445.13,254.24c-38.13.01-77.23,0-115.42,0h-1.43c-40.62-.03-82.97.05-123.29-.04-3.52-.11-7.54-.57-10.25-2.61-6.7-5.14-2.27-14.72,6.12-15.02,3.68-.5,7.71-.37,11.74-.41,77.78,0,156.59-.03,234.19,0,7.21-.13,18.83.06,19.15,9.08-.8,9.87-13.38,8.95-20.8,9Z"/>
  <path class="cls-1" d="M459.55,360.35c-63.63-.02-127.67-.04-191.3,0h-1.32c-65.19.07-130.96,0-196.25.04-13.73.24-30.75-3.04-29.18,16.57.07,36.17-.05,72.17.12,108.42-.24,10.13,5.11,16.8,15.77,16.35,138.63-.14,277.65.22,416.36-.75,10.37.36,15.99-6.35,15.41-16.18.04-36.18-.01-72.22.04-108.4,1.34-19.17-16.23-15.78-29.66-16.06ZM131.55,463.18c-12.73-.5-27.45,1.75-39.88-.05-1.14-.16-2-1.08-2.02-2.16-.05-4.02,3.91-9.71,4.6-13.38,2.63-5.88,4.69-12,8.07-18.01-3.04-1.56-5.6-4.06-7.15-7.11-1.93-3.8-2.44-8.75-.84-12.77,2.21-5.54,7.52-9.92,13.29-11.14,5.93-1.26,12.51.82,16.49,5.43.48.55.91,1.14,1.3,1.75,2.89,4.51,3.46,10.52,1.19,15.38-1.51,3.23-4.15,5.86-7.23,7.65,0,0-.01,0-.02,0,5.88,8.63,10.43,18.94,15.18,27.95l.42.92c1.81,3.53,1.77,5.7-3.41,5.54ZM285.37,463.31c-14.05.21-28.59-.02-42.56.11h-1.08c-15.01-.95-31.75,2.05-46.23-1.51-3.78-1.77-4.68-8.82-2.18-12.56,2.03-3.19,6.48-3.7,10.15-3.83,25.46-.04,50.84.04,76.16.13,5.69.21,13.44.6,15.78,6.67,2.09,6.69-3.46,11.38-10.02,10.99ZM462.37,408.38c-2.41,2.03-5.76,2.35-8.91,2.45-40.75-.08-83.4.25-124.37-.07h-1.3c-40.31-.29-82.13.2-122.27-.24-3.7-.19-7.61-.33-10.69-2.26-9.2-7.55-.02-17.07,10.01-15.83,77.13-.37,156.03-.24,234.31.06,6,.16,12.17-.55,17.98.18,7.66.38,11.07,10.95,5.24,15.7Z"/>
  <path d="M505.15,47.68c-.06-23.4-22.58-22.52-40.04-22.48-132.93.03-265.5.13-398.37.26-37.86-1.33-42.55,5.88-41.48,42.43-.08,67.86.07,135.93-.05,203.72v1.34c-.15,72.01-.05,145.22-.04,216.95-1.59,27.52,15.49,29.21,37.98,28.26,132.2-.03,264.68-.07,396.84-.09,13.29-.87,30.31,3.53,40.15-6.94,6.73-8.74,5.23-21.56,5.52-32.42-.53-143.66,1.41-287.34-.51-431.04ZM44.53,46.12c2.98-3.16,10.3-3.19,15.25-3.37,33.61-.19,67.23-.12,100.85-.2,104.21-.15,208.46-.24,312.64-.19,11.56-.47,16.41,6.91,16.02,17.6-.28,36.49.03,72.45-.11,108.67.45,17.26-7.47,16.79-21.16,16.93-67.67.23-135.75-.32-203.34.23l-1.32.03c-66.96.39-134.38.06-201.42.13-18.39.23-20.81-1.22-20.08-20.28-.26-34.9-.7-69.76-.69-104.66.16-4.32,0-11.98,3.36-14.9ZM489.2,376.41c-.05,36.18,0,72.22-.04,108.4.58,9.83-5.04,16.54-15.41,16.18-138.71.97-277.73.6-416.36.75-10.67.45-16.01-6.22-15.77-16.35-.18-36.24-.05-72.25-.12-108.42-1.56-19.62,15.46-16.34,29.18-16.57,65.28-.04,131.05.03,196.25-.04h1.32c63.64-.05,127.68-.02,191.3,0,13.43.28,31-3.11,29.66,16.06ZM485.58,339.59c-5.61,5.03-15.67,3.07-23.13,3.46-138.92-2.71-280.5,4.77-418.23-3.11l-.7-.78c-2.13-2.7-2.44-7.62-2.3-11.45.08-35.76.19-70.42-.12-105.5-.59-10.23,3.24-19.29,14.79-18.82,121.67-.35,243.67-.24,365.45-.27,18.58.1,35.67-.19,54.45.14,12.47-.39,13.51,6.26,13.4,16.48-.02,35.9.04,71.14.17,107.01-.11,4.47-.65,9.83-3.78,12.85Z"/>
  <path d="M457.13,392.69c-5.82-.74-11.98-.02-17.98-.18-78.28-.31-157.18-.43-234.31-.06-10.03-1.24-19.21,8.28-10.01,15.83,3.09,1.93,6.99,2.07,10.69,2.26,40.14.44,81.97-.05,122.27.22h1.3c40.97.33,83.62,0,124.37.08,3.15-.11,6.5-.43,8.91-2.45,5.82-4.74,2.42-15.31-5.24-15.7Z"/>
  <path d="M279.62,445.65c-25.32-.09-50.7-.18-76.16-.13-3.67.13-8.12.64-10.15,3.83-2.5,3.74-1.6,10.79,2.18,12.56,14.48,3.56,31.23.56,46.23,1.51h1.08c13.97-.13,28.51.09,42.56-.12,6.56.4,12.1-4.3,10.02-10.99-2.34-6.07-10.08-6.47-15.78-6.67Z"/>
  <path d="M198.34,91.68c82.08,2.67,165.32.29,247.39,1.15,3.98-.06,7.97.01,11.52-.84,7.23-1.23,10.59-10.07,4.31-14.24-4.77-2.97-10.93-2.31-16.44-2.48-38.01,0-77.16-.05-115.21,0h-1.31c-37.97.09-77.03,0-114.96.04-6.48.31-13.51-.93-19.31,2.19-6.69,4.07-3.48,12.98,4.02,14.17Z"/>
  <path d="M335.47,129.88c-21.46-.38-44.39-.06-66.01-.18h-1.18c-16.43-.09-33.77.04-50.42-.03-9.63.03-32.77-2.82-25.62,13.25,2.57,3.48,7.56,3.15,11.64,3.3,43.46.05,87.29.57,130.66.06,8.07.44,12.88-8.29,7.19-14.29-1.6-1.59-4.12-1.84-6.26-2.11Z"/>
  <path d="M446.78,236.15c-77.59-.04-156.41-.01-234.19,0-4.03.04-8.06-.09-11.74.41-8.39.3-12.82,9.89-6.12,15.02,2.71,2.04,6.73,2.5,10.25,2.61,40.32.09,82.67.01,123.29.04h1.43c38.19,0,77.29.01,115.42,0,7.42-.06,20,.87,20.8-9-.32-9.02-11.94-9.21-19.15-9.08Z"/>
  <path d="M290.62,288.47c-29.16-.11-58.13-.13-87.32-.03-3.72.13-8.17.71-10.33,3.85-3.37,4.93-1.25,12.61,4.65,13.29,15.77,1.27,31.94.06,47.67.54l1.08.02c15.11.14,30.89.11,46.07.01,3.5-.11,6.95-.24,9.09-2.44,6.07-8.81-1-16.17-10.9-15.24Z"/>
  <path d="M91.81,142.22c.01,1.07.88,1.99,2.02,2.16,12.42,1.8,27.15-.45,39.88.05,5.19.16,5.22-2.01,3.41-5.54l-.42-.92c-4.75-9.02-9.3-19.32-15.18-27.95,0,0,.01,0,.02,0,3.08-1.78,5.71-4.41,7.23-7.65,2.28-4.86,1.7-10.86-1.19-15.38-.39-.61-.83-1.2-1.3-1.75-3.98-4.61-10.55-6.68-16.49-5.43-5.77,1.22-11.09,5.6-13.29,11.14-1.6,4.02-1.1,8.97.84,12.77,1.55,3.05,4.11,5.55,7.15,7.11-3.38,6.01-5.44,12.13-8.07,18.01-.69,3.67-4.65,9.37-4.6,13.38Z"/>
  <path d="M134.55,299.08c-4.75-9.02-9.3-19.32-15.18-27.95,0,0,.01,0,.02,0,3.08-1.78,5.71-4.41,7.23-7.65,2.28-4.86,1.7-10.86-1.19-15.38-.39-.61-.83-1.2-1.3-1.75-3.98-4.61-10.55-6.68-16.49-5.43-5.77,1.22-11.09,5.6-13.29,11.14-1.6,4.02-1.1,8.97.84,12.77,1.55,3.05,4.11,5.55,7.15,7.11-3.38,6.01-5.44,12.13-8.07,18.01-.69,3.67-4.65,9.37-4.6,13.38.01,1.07.88,1.99,2.02,2.16,12.42,1.8,27.15-.45,39.88.05,5.19.16,5.22-2.01,3.41-5.54l-.42-.92Z"/>
  <path d="M134.55,456.71c-4.75-9.02-9.3-19.32-15.18-27.95,0,0,.01,0,.02,0,3.08-1.78,5.71-4.41,7.23-7.65,2.28-4.86,1.7-10.86-1.19-15.38-.39-.61-.83-1.2-1.3-1.75-3.98-4.61-10.55-6.68-16.49-5.43-5.77,1.22-11.09,5.6-13.29,11.14-1.6,4.02-1.1,8.97.84,12.77,1.55,3.05,4.11,5.55,7.15,7.11-3.38,6.01-5.44,12.13-8.07,18.01-.69,3.67-4.65,9.37-4.6,13.38.01,1.07.88,1.99,2.02,2.16,12.42,1.8,27.15-.45,39.88.05,5.19.16,5.22-2.01,3.41-5.54l-.42-.92Z"/>
</svg>