<?xml version="1.0" encoding="UTF-8"?>
<svg id="Layer_1" xmlns="http://www.w3.org/2000/svg" viewBox="0 0 363.2 481.78">
  <path d="M250.58,44.4c-24.54-19.45-54.01-29.81-87.61-30.79-10.52-.31-21.79,1.22-35.5,4.8-29.83,7.79-54.71,23.26-73.93,45.97-20.73,24.49-31.71,53.71-32.63,86.86-.3,10.71.82,21.92,3.33,33.33,2.85,12.97,6.91,24.61,12.41,35.6,5.25,10.49,12.21,19.58,19.49,28.74,19.56,24.63,30.65,53.59,32.97,86.07.63,8.75,3.42,15.63,8.55,21.01.78.82,1.06,1.59,1.04,2.94-.05,4.1-.04,8.16-.03,12.87,0,1.91,0,3.92,0,6.06-.13,5.79-.11,14.62.7,23.88.48,5.59,1.55,10.95,3.16,15.91,3.25,10.01,9.77,18.33,19.93,25.42.81.57,1.67,1.05,2.49,1.52,1.3.74,2.52,1.43,3.39,2.34.79.83,1.08,2.13,1.42,3.64.21.96.44,1.95.82,2.93,3,7.67,8.7,11.99,16.94,12.86,5.25.55,10.53.7,15.77.7,3.26,0,6.5-.06,9.7-.12,1.27-.02,2.55-.05,3.82-.07,6.33-.1,11.8-2.97,15.83-8.31,1.58-2.09,2.7-4.21,3.41-6.47.88-2.78,2.51-5.04,4.99-6.9,1.48-1.12,2.99-2.2,4.5-3.29,1.32-.95,2.64-1.91,3.95-2.88,9.2-6.85,15.05-16.39,17.37-28.34,1.52-7.82,1.64-15.78,1.76-23.47v-.42c.15-9.1.07-18.39-.01-27.13-.02-1.82.34-2.86,1.31-3.85,2.83-2.87,4.91-6.42,6.19-10.55,1.12-3.61,1.84-7.65,2.2-12.34.52-6.83,1.17-14.09,2.72-21.17,4.79-21.91,13.81-41.86,26.81-59.29,1.68-2.25,3.47-4.48,5.21-6.65,3.14-3.91,6.38-7.96,9.14-12.31,14.27-22.53,21.91-47,22.72-72.74.59-18.82-2.4-37.2-8.86-54.63-8.97-24.17-24.26-44.94-45.44-61.73ZM159.05,448.79h4.16c1.52,0,3.03,0,4.54,0,3.62,0,7.35.02,11.04-.03-.74,1.32-1.49,1.74-2.89,1.75-1.96.02-3.92.07-5.88.13-4.99.14-10.14.28-15.17-.18-2.22-.2-4.38-.69-6.95-1.37-.2-.05-.43-.16-.64-.3,3.92-.02,7.85-.02,11.77-.02ZM140.3,419.51h21.4s0,.06,0,.06h9.74c11.12,0,22.24,0,33.36,0-5.53,7.91-13.16,12.09-22.69,12.43-17.39.62-30.79.68-43.44.2-3.02-.11-5.42-1.74-8.03-3.7-3.66-2.75-6.56-5.71-8.84-9.01,6.18.04,12.43.03,18.49.03ZM193.59,373.14h-6.34s-36.19,0-36.19,0c-11.38,0-22.75,0-34.13,0-.45,0-.93,0-1.31-.01,0-.03,0-.05,0-.08-.02-.3-.04-.65-.08-1.05-.32-3.33-.52-6.1.04-8.89.13-.66.28-1.39.4-1.74.38-.06,1.18-.06,1.74-.06,10.66,0,21.31,0,31.96,0h11.99s12.65,0,12.65,0c12.12,0,24.25,0,36.37,0,.39-.01.72,0,1.02-.01.02,0,.04,0,.06,0,0,.12,0,.23.01.35l.02.81c.11,2.93.19,6.41,0,9.97-.02.38-.07.58-.1.67-.1.03-.3.07-.76.06-3.67-.03-7.37-.04-11.04-.04-2.12,0-4.22,0-6.3,0ZM167.85,173.13c-1.09.85-2.17,1.7-3.24,2.57-.27.22-.38.31-.96-.06-.98-.61-2.25-2.3-2.68-3.16,1.34-1.66,4.02-2.4,5.66-1.45.68.39,1.34.91,2.03,1.46l-.81.64ZM135.92,206.78s.03,0,.05,0c7.06-.54,13.73-2.15,19.82-4.77,2.81-1.21,5.14-2.51,7.11-3.96.94-.69,1.57-.72,2.79-.13,1,.49,2,.98,2.99,1.48,3.2,1.59,6.51,3.24,9.95,4.56,4.81,1.85,9.81,2.49,13.64,2.83.15.01.27.03.37.04,0,.04-.02.09-.03.14-1.13,5.7-1.86,11.52-2.57,17.15-.41,3.28-.84,6.68-1.34,9.99-.94,6.26-1.85,12.52-2.75,18.78-.54,3.76-1.09,7.53-1.64,11.29-1.47,10.02-2.95,20.04-4.43,30.05-.62,4.19-1.25,8.38-1.88,12.57-1.11,7.38-2.21,14.77-3.29,22.16-.81,5.54-1.46,10.6-2,15.47-.02.19-.04.33-.06.43-.06,0-.16,0-.27,0-1.19-.07-2.38-.09-3.55-.09-.85,0-1.69.01-2.52.02-1.66.02-3.33.02-4.99.01-2.06,0-4.19-.02-6.3.03-.53-8.19-1.85-16.38-3.14-24.29-.48-2.93-.97-5.97-1.41-8.95-1.01-6.82-1.97-13.76-2.89-20.48-.68-4.98-1.37-9.97-2.08-14.95-.67-4.65-1.36-9.29-2.06-13.94-1.05-7.03-2.14-14.3-3.1-21.45-.47-3.52-1-7.09-1.51-10.54-1.12-7.59-2.28-15.43-2.91-23.18,0-.06-.01-.15-.02-.26ZM213.02,186.25l.11-.5c.97-4.33,1.88-8.43,4.18-12.01.84-1.31,2.31-2.1,4.03-2.15.06,0,.13,0,.19,0,1.69,0,3.23.74,4.16,1.99.29.39.36.82.37.94-.06,1.64-.67,2.62-1.7,3.75-2.84,3.13-6.48,5.69-11.35,7.98ZM117.07,186.39c-4.23-1.87-7.95-4.49-11.08-7.82-1.15-1.22-1.81-2.2-1.76-3.59v-.05c0-.84.64-1.76,1.69-2.46.95-.63,2.06-.97,3.1-.97.56,0,1.1.1,1.58.3,1.1.46,2.02,1.24,2.72,2.31,2.38,3.65,3.07,7.84,3.76,12.28ZM115.76,402.06v-.82c0-3.49-.02-6.98,0-10.47,0-.29,0-.61.01-.88.3,0,.66,0,.95,0,11.84,0,23.68,0,35.52,0h58.18c.35,0,.66,0,.94,0,.12,0,.24,0,.36,0,0,.26,0,.56,0,.85v3.09c0,2.6,0,5.21,0,7.81,0,.27,0,.57,0,.84-.28,0-.6-.01-.97-.01h0c-9.81,0-19.62,0-29.43,0h-23.93c-13.45,0-26.89,0-40.34,0-.44.02-.76,0-1.07.01-.07,0-.15,0-.22,0,0-.13,0-.26,0-.38ZM189.52,344.82c-.05,0-.11,0-.17,0,0-.02,0-.05,0-.08,1.09-8.3,2.41-16.71,3.67-24.85.58-3.72,1.16-7.45,1.72-11.17.96-6.34,1.85-12.8,2.72-19.04.53-3.8,1.05-7.6,1.6-11.4.64-4.51,1.31-9.02,1.97-13.52.61-4.18,1.23-8.36,1.83-12.54.51-3.58,1.01-7.16,1.51-10.74.7-5,1.4-10,2.13-15,.28-1.93.56-3.87.83-5.81.7-4.98,1.42-10.13,2.35-15.15.18-.98.34-1.15,1.38-1.47,6.59-2.04,12.15-4.5,17-7.52,4.38-2.73,7.72-5.77,10.21-9.29,4.11-5.82,5.07-12.44,2.7-18.63-2.52-6.58-8.61-11.86-15.53-13.45-9.47-2.17-17.63,2.92-21.52,8.94-3.5,5.41-5.35,11.27-7.06,18.41-.59,2.47-1.07,5-1.49,7.37-.05.3-.1.47-.14.55-.07.01-.19.02-.37,0-6.73-.33-12.4-1.78-17.33-4.45-.03-.02-.07-.04-.1-.06,0,0,0,0,0,0,.75-.74,1.52-1.46,2.29-2.18.63-.58,1.25-1.17,1.87-1.77l.51-.49c.83-.8,1.69-1.62,2.46-2.56,4.11-4.98,4.05-8.68-.22-13.67-3.07-3.58-6.51-6.49-10.25-8.65-6.96-4.04-14.22-3.65-21,1.12-3.86,2.71-7.24,6.22-10.05,10.41-2.76,4.11-2.47,7.42.99,11.04,1.99,2.09,4.28,4.27,7.15,6.84-3.22,1.72-6.9,2.92-11.21,3.65-1.09.18-2.18.31-3.34.45-.77.09-1.53.18-2.3.29-.21.03-.35.04-.45.04-.03-.1-.06-.25-.09-.46-.66-5.17-1.26-9.47-2.49-13.86-1.43-5.1-3.31-10.43-7.29-14.82-3.96-4.38-9.12-6.41-16.24-6.41h0c-6.54,0-12.58,3.34-16.15,8.93-3.91,6.11-4.33,13.92-1.12,20.9,2.3,5.01,5.93,9.08,11.07,12.44,5.13,3.36,10.49,5.7,15.92,6.96,1.17.27,1.37.43,1.53,2.04.77,7.81,1.75,16.25,3.11,26.57,1.47,11.2,3.06,22.16,4.29,30.45.9,6.14,1.88,12.38,2.82,18.4.52,3.32,1.04,6.64,1.55,9.97,1.48,9.67,2.96,19.35,4.43,29.03.38,2.51.75,5.01,1.12,7.52.64,4.32,1.3,8.8,2,13.19l.03.17c.21,1.29.42,2.63.4,3.24-.6.11-1.94.11-3.27.11-1.55,0-3.11,0-4.66-.01-3.7-.01-7.52-.03-11.28.04-2.51.05-4.98-.34-7.59-.74l-.16-.03c-2.87-.44-4.37-2.07-4.86-5.27-.41-2.67-.63-5.44-.85-8.12-.26-3.18-.53-6.47-1.1-9.72-5.92-33.57-18.19-61.24-37.51-84.6-11.85-14.33-19.82-29.03-24.35-44.92-4.4-15.45-6.26-29.32-5.69-42.42,1.21-27.45,10.57-51.83,27.8-72.48,16.62-19.9,38.66-33.93,65.52-41.7,10.7-3.09,21.5-4.65,32.26-4.65,4.07,0,8.12.22,12.17.67,32.92,3.62,60.25,17.59,81.25,41.51,14.98,17.07,24.79,37.25,29.16,59.96,1.6,8.3,2.11,16.64,2.38,22.98-.22,25.05-6.57,47.3-19.41,68.01-3.12,5.04-6.56,9.8-10.51,14.56-11.78,14.21-20.72,30.44-27.33,49.61-4.97,14.4-7.91,28.1-8.99,41.86-.2,2.61-.61,5.29-.99,7.87l-.26,1.72c-.46,3.11-1.98,4.73-4.95,5.26-.36.06-.72.13-1.07.21-1.02.2-1.98.4-2.92.4h-.02c-6.94-.02-14.41-.03-22.02,0Z"/>
  <path d="M348.65,140.85c-1.76-3.01-4.58-3.18-6.54-3.04-1.22.08-2.47.07-3.91.04-.7,0-1.44-.02-2.23-.02h-.13c-.82.07-1.77.04-2.77,0-1.73-.05-3.69-.12-5.68.27-3.83.74-6.32,3.37-6.82,7.2-.45,3.46,1.05,6.17,4.46,8.05,1.47.81,3.07,1.27,4.91,1.41,2.37.18,4.85.27,7.51.27,1.21,0,2.47-.02,3.76-.06,3.79-.11,6.51-1.97,8.32-5.69,1.23-2.54.94-5.3-.89-8.43Z"/>
  <path d="M333.67,204.51c-5.02-4.24-11.01-6.69-17.8-7.27h-.13s-.13,0-.13,0c-.17.01-.34,0-.5,0-.51,0-1.14,0-1.8.24-2.57.98-5.34,2.45-6.35,5.97-1.01,3.52,1.2,5.83,2.66,7.36.7.74,1.57,1.42,2.72,2.15,4.99,3.18,10.01,4.89,15.35,5.24.19.01.39.02.58.02,3.61,0,7.13-2.16,8.36-5.21,1.81-4.49-1.64-7.41-2.94-8.51Z"/>
  <path d="M313.67,95.2h.09s.09,0,.09,0c2.28,0,4.23-.81,6.11-1.59.5-.21,1-.41,1.5-.6,3.83-1.43,8.2-3.38,11.57-6.95,1.65-1.75,3.42-4.19,2.4-7.52-1.02-3.32-3.77-4.48-6.33-5.18-1.36-.37-2.85-.36-4.3.03-4.63,1.24-8.44,2.51-12.03,4.69-2.45,1.49-4.09,2.95-5.33,4.73-1.89,2.74-2.25,5.37-1.07,7.84,1.28,2.68,3.73,4.21,7.3,4.55Z"/>
  <path d="M272.86,44.36c1.89,1.22,3.66,1.82,5.31,1.82,1.28,0,2.48-.37,3.59-1.1,5.53-3.63,9.54-8.28,11.93-13.82,1.26-2.92,1.31-5.36.15-7.25-1.22-1.99-3.67-3.12-7.29-3.37-1.27-.19-2.8.23-4.03,1.12-4.03,2.92-7.62,6.45-10.67,10.49-.76,1.01-1.37,2.26-1.88,3.82-1.03,3.19.13,6.52,2.89,8.29Z"/>
  <path d="M168.6,49.18c-1.79-1.59-4.1-2.4-7.07-2.46-4.71-.11-8.99.14-13.11.77-18.22,2.76-34.96,9.36-49.75,19.61-9.72,6.74-18.11,14.93-24.94,24.35-5.27,7.28-9.57,15.27-12.77,23.74-3.17,8.41-5.14,17.6-6.38,29.82v.1s0,.1,0,.1c0,1.61.08,3.52.51,5.44.88,3.88,3.52,6,7.47,6,.15,0,.29,0,.44,0,4.26-.17,7.58-3.03,8.07-6.95l.19-1.56c.39-3.11.79-6.33,1.12-9.51.91-8.72,3.69-17.43,8.51-26.63,6.39-12.2,15.49-22.67,27.04-31.12,13.35-9.76,28.25-15.54,44.3-17.19,1.23-.13,2.51-.2,3.74-.27,3.28-.19,6.67-.39,10.01-1.55,1.99-.69,4.71-1.64,5.3-4.9.55-3.04-.38-5.72-2.69-7.77Z"/>
</svg>